<svg xmlns="http://www.w3.org/2000/svg" width="24" height="24" fill="none" viewBox="0 0 24 24">
  <rect width="24" height="24" fill="#fff" rx="12"/>
  <path fill="currentColor" d="M17.7 3.14c0 .628-.516 1.138-1.152 1.138-.637 0-1.153-.51-1.153-1.139S15.911 2 16.548 2c.636 0 1.152.51 1.152 1.14Zm1.295 16.09c0 .629-.516 1.139-1.152 1.139-.636 0-1.152-.51-1.152-1.14 0-.628.516-1.138 1.152-1.138.636 0 1.152.51 1.152 1.139ZM16.877 7.126a.961.961 0 0 0 .967-.956.961.961 0 0 0-.967-.956.961.961 0 0 0-.967.956c0 .528.433.956.967.956Zm3.538-.59a.961.961 0 0 1-.967.956.961.961 0 0 1-.967-.956c0-.528.433-.956.967-.956s.967.428.967.956Zm-3.867 3.013a.819.819 0 0 0 .823-.814.819.819 0 0 0-.823-.814.819.819 0 0 0-.823.814c0 .45.368.814.823.814Zm3.395-.471c0 .45-.369.814-.823.814a.819.819 0 0 1-.824-.814c0-.45.369-.814.824-.814a.82.82 0 0 1 .823.814Zm1.234 1.608A.819.819 0 0 0 22 9.872a.819.819 0 0 0-.823-.813.819.819 0 0 0-.823.813c0 .45.368.814.823.814Zm-2.1.448a.716.716 0 0 1-.72.711.716.716 0 0 1-.719-.711c0-.393.322-.712.72-.712.397 0 .72.319.72.712Zm-3.29.365c.397 0 .72-.319.72-.712a.716.716 0 0 0-.72-.711.715.715 0 0 0-.72.711c0 .393.322.712.72.712Zm5.37.427a.716.716 0 0 1-.72.711.716.716 0 0 1-.72-.711c0-.393.323-.712.72-.712.397 0 .72.319.72.712Zm-3.828 1.406a.615.615 0 0 0 .618-.612.614.614 0 0 0-.618-.61.614.614 0 0 0-.618.61c0 .338.277.611.618.611Zm2.698.161c0 .337-.277.61-.618.61a.614.614 0 0 1-.618-.61c0-.338.277-.611.618-.611.341 0 .618.273.618.61Zm-5.249-.527a.614.614 0 0 0 .618-.611.614.614 0 0 0-.618-.611.614.614 0 0 0-.618.61c0 .338.277.612.618.612Zm1.933.852c0 .281-.23.509-.514.509a.511.511 0 0 1-.514-.509c0-.28.23-.508.514-.508.284 0 .514.228.514.508Zm.371 1.914c.25 0 .452-.2.452-.448a.45.45 0 0 0-.452-.447.45.45 0 0 0-.453.447.45.45 0 0 0 .453.448Zm-.72-.082a.369.369 0 0 1-.37.367.369.369 0 0 1-.371-.367c0-.202.166-.366.37-.366.205 0 .371.164.371.366Zm-1.337-.692c.25 0 .452-.2.452-.447a.45.45 0 0 0-.452-.447.45.45 0 0 0-.453.447.45.45 0 0 0 .453.447Zm-.885-1.484c0 .28-.23.508-.515.508a.511.511 0 0 1-.514-.508c0-.28.23-.508.514-.508.284 0 .515.227.515.508Zm-.534-3.317a.511.511 0 0 0 .514-.508.512.512 0 0 0-.514-.509.511.511 0 0 0-.514.509c0 .28.23.508.514.508Zm.677-2.237a.45.45 0 0 1-.452.447.45.45 0 0 1-.453-.447.45.45 0 0 1 .453-.448c.25 0 .452.2.452.448Zm.042-1.017c.205 0 .37-.164.37-.366a.369.369 0 0 0-.37-.367.369.369 0 0 0-.37.367c0 .202.165.366.37.366Zm-.411-1.139a.45.45 0 0 1-.452.447.45.45 0 0 1-.453-.447.45.45 0 0 1 .453-.448c.25 0 .452.2.452.448Zm4.342 9.338a.511.511 0 0 0 .514-.509c0-.28-.23-.508-.514-.508a.511.511 0 0 0-.514.508c0 .281.23.509.514.509Zm-5.454-9.991c0 .281-.23.509-.514.509a.511.511 0 0 1-.514-.509c0-.28.23-.508.514-.508.284 0 .514.228.514.508Zm-.163 2.665a.511.511 0 0 0 .514-.508c0-.28-.23-.508-.514-.508a.511.511 0 0 0-.514.508c0 .28.23.508.514.508Zm.041 1.445a.614.614 0 0 1-.617.611.614.614 0 0 1-.618-.61c0-.338.276-.612.617-.612.342 0 .619.274.619.611Zm-2.491.611c.397 0 .72-.318.72-.711a.716.716 0 0 0-.72-.711.716.716 0 0 0-.72.711c0 .393.322.711.72.711Zm-1.358-.325c0 .45-.368.814-.823.814a.819.819 0 0 1-.823-.814c0-.45.368-.814.823-.814.455 0 .823.364.823.814ZM5.622 11.48a.961.961 0 0 0 .967-.956.961.961 0 0 0-.967-.956.961.961 0 0 0-.966.956.96.96 0 0 0 .966.956Zm-1.318.814c0 .629-.515 1.139-1.152 1.139-.636 0-1.152-.51-1.152-1.14 0-.628.516-1.138 1.152-1.138.637 0 1.152.51 1.152 1.139Zm.352-3.195a.961.961 0 0 0 .966-.956.961.961 0 0 0-.966-.956.961.961 0 0 0-.967.956c0 .528.433.956.967.956Zm3.209-1.973a.82.82 0 0 1-.824.814.819.819 0 0 1-.823-.814c0-.45.369-.814.823-.814.455 0 .824.364.824.814ZM6.692 5.784a.819.819 0 0 0 .824-.814.819.819 0 0 0-.824-.814.819.819 0 0 0-.823.814c0 .45.369.814.823.814Zm2.901-1.2a.716.716 0 0 1-.72.712.716.716 0 0 1-.72-.712c0-.393.323-.711.72-.711.398 0 .72.318.72.711Zm1.152.713a.615.615 0 0 0 .618-.611.615.615 0 0 0-.618-.611.615.615 0 0 0-.618.61c0 .338.277.612.618.612Zm.967 1.545a.614.614 0 0 1-.618.611.615.615 0 0 1-.618-.61c0-.338.276-.611.618-.611.34 0 .618.273.618.61Zm-2.49.63c.397 0 .72-.319.72-.712a.716.716 0 0 0-.72-.711.716.716 0 0 0-.72.711c0 .393.323.712.72.712Zm-1.666 5.046a.369.369 0 0 1-.37.367.369.369 0 0 1-.372-.367c0-.202.166-.366.371-.366s.37.164.37.366Zm1.11.182c.25 0 .453-.2.453-.448a.45.45 0 0 0-.453-.447.45.45 0 0 0-.452.447.45.45 0 0 0 .452.448Zm2.141-1.119c0 .281-.23.509-.514.509a.511.511 0 0 1-.515-.509c0-.28.23-.508.514-.508.284 0 .515.227.515.508Zm-.123 2.137a.614.614 0 0 0 .618-.611.614.614 0 0 0-.618-.611.614.614 0 0 0-.618.61c0 .338.276.612.617.612Zm-1.462-.122c0 .28-.23.508-.514.508a.511.511 0 0 1-.515-.508c0-.281.23-.509.515-.509.284 0 .514.228.514.509Zm-2.262.486c.25 0 .452-.2.452-.447a.45.45 0 0 0-.452-.447.45.45 0 0 0-.453.447.45.45 0 0 0 .453.447Zm.534.897c0 .28-.23.508-.514.508a.511.511 0 0 1-.514-.508c0-.28.23-.508.514-.508a.51.51 0 0 1 .514.508Zm1.584.773a.614.614 0 0 0 .618-.61.614.614 0 0 0-.618-.612.614.614 0 0 0-.617.611c0 .338.276.611.617.611Zm3.168-.977a.716.716 0 0 1-.72.711.716.716 0 0 1-.719-.711c0-.393.322-.712.72-.712.397 0 .72.319.72.712Zm.721 2.482a.819.819 0 0 0 .824-.814.819.819 0 0 0-.824-.813.819.819 0 0 0-.823.813c0 .45.369.814.823.814Zm-2.305-.469a.716.716 0 0 1-.72.711.716.716 0 0 1-.72-.711c0-.393.322-.712.72-.712.397 0 .72.319.72.712Zm-2.427 2.096c.397 0 .72-.319.72-.712a.716.716 0 0 0-.72-.71.716.716 0 0 0-.72.71c0 .393.323.712.72.712Zm2.242.976c0 .45-.368.814-.823.814a.819.819 0 0 1-.823-.814c0-.45.369-.813.823-.813.455 0 .823.364.823.813ZM13.44 21a.961.961 0 0 0 .967-.956.961.961 0 0 0-.967-.956.961.961 0 0 0-.967.956c0 .528.433.956.967.956Zm-1.254-2.522c0 .45-.368.814-.823.814a.819.819 0 0 1-.823-.814c0-.45.369-.814.823-.814.455 0 .823.364.823.814Zm2.839.488a.961.961 0 0 0 .967-.956.961.961 0 0 0-.967-.956.961.961 0 0 0-.967.956c0 .528.433.956.967.956Zm-7.037-2.442a.614.614 0 0 1-.618.611.614.614 0 0 1-.618-.61c0-.338.277-.611.618-.611.342 0 .618.273.618.61Z"/>
</svg>
