<svg width="114" height="47" viewBox="0 0 114 47" fill="none" xmlns="http://www.w3.org/2000/svg">
<g clip-path="url(#clip0_22_3564)">
<path d="M32.8206 10.3298C34.0157 10.3298 34.9846 9.39968 34.9846 8.25231C34.9846 7.10493 34.0157 6.1748 32.8206 6.1748C31.6254 6.1748 30.6565 7.10493 30.6565 8.25231C30.6565 9.39968 31.6254 10.3298 32.8206 10.3298Z" fill="white"/>
<path d="M35.2551 39.675C36.4502 39.675 37.4191 38.7449 37.4191 37.5975C37.4191 36.4501 36.4502 35.52 35.2551 35.52C34.0599 35.52 33.091 36.4501 33.091 37.5975C33.091 38.7449 34.0599 39.675 35.2551 39.675Z" fill="white"/>
<path d="M33.439 15.5236C34.4421 15.5236 35.2553 14.743 35.2553 13.78C35.2553 12.817 34.4421 12.0364 33.439 12.0364C32.436 12.0364 31.6228 12.817 31.6228 13.78C31.6228 14.743 32.436 15.5236 33.439 15.5236Z" fill="white"/>
<path d="M38.2698 16.1913C39.2729 16.1913 40.0861 15.4107 40.0861 14.4477C40.0861 13.4847 39.2729 12.7041 38.2698 12.7041C37.2668 12.7041 36.4536 13.4847 36.4536 14.4477C36.4536 15.4107 37.2668 16.1913 38.2698 16.1913Z" fill="white"/>
<path d="M32.8208 19.9383C33.6745 19.9383 34.3666 19.2739 34.3666 18.4544C34.3666 17.6348 33.6745 16.9705 32.8208 16.9705C31.9672 16.9705 31.2751 17.6348 31.2751 18.4544C31.2751 19.2739 31.9672 19.9383 32.8208 19.9383Z" fill="white"/>
<path d="M37.6509 20.5692C38.5045 20.5692 39.1966 19.9048 39.1966 19.0853C39.1966 18.2657 38.5045 17.6013 37.6509 17.6013C36.7972 17.6013 36.1051 18.2657 36.1051 19.0853C36.1051 19.9048 36.7972 20.5692 37.6509 20.5692Z" fill="white"/>
<path d="M41.5154 22.016C42.3691 22.016 43.0611 21.3516 43.0611 20.532C43.0611 19.7125 42.3691 19.0481 41.5154 19.0481C40.6617 19.0481 39.9697 19.7125 39.9697 20.532C39.9697 21.3516 40.6617 22.016 41.5154 22.016Z" fill="white"/>
<path d="M36.2212 24.1306C36.9681 24.1306 37.5737 23.5492 37.5737 22.8321C37.5737 22.115 36.9681 21.5337 36.2212 21.5337C35.4742 21.5337 34.8687 22.115 34.8687 22.8321C34.8687 23.5492 35.4742 24.1306 36.2212 24.1306Z" fill="white"/>
<path d="M31.3911 23.4995C32.1381 23.4995 32.7436 22.9181 32.7436 22.201C32.7436 21.4839 32.1381 20.9026 31.3911 20.9026C30.6441 20.9026 30.0386 21.4839 30.0386 22.201C30.0386 22.9181 30.6441 23.4995 31.3911 23.4995Z" fill="white"/>
<path d="M40.1241 25.5771C40.8711 25.5771 41.4766 24.9958 41.4766 24.2787C41.4766 23.5616 40.8711 22.9802 40.1241 22.9802C39.3771 22.9802 38.7716 23.5616 38.7716 24.2787C38.7716 24.9958 39.3771 25.5771 40.1241 25.5771Z" fill="white"/>
<path d="M34.2894 26.8384C34.9297 26.8384 35.4487 26.3402 35.4487 25.7255C35.4487 25.1108 34.9297 24.6125 34.2894 24.6125C33.6492 24.6125 33.1301 25.1108 33.1301 25.7255C33.1301 26.3402 33.6492 26.8384 34.2894 26.8384Z" fill="white"/>
<path d="M38.1924 28.2484C38.8326 28.2484 39.3517 27.7501 39.3517 27.1354C39.3517 26.5207 38.8326 26.0225 38.1924 26.0225C37.5521 26.0225 37.0331 26.5207 37.0331 27.1354C37.0331 27.7501 37.5521 28.2484 38.1924 28.2484Z" fill="white"/>
<path d="M29.4972 26.1705C30.1375 26.1705 30.6565 25.6722 30.6565 25.0575C30.6565 24.4429 30.1375 23.9446 29.4972 23.9446C28.8569 23.9446 28.3379 24.4429 28.3379 25.0575C28.3379 25.6722 28.8569 26.1705 29.4972 26.1705Z" fill="white"/>
<path d="M32.1637 28.6564C32.6972 28.6564 33.1298 28.2412 33.1298 27.729C33.1298 27.2168 32.6972 26.8015 32.1637 26.8015C31.6301 26.8015 31.1976 27.2168 31.1976 27.729C31.1976 28.2412 31.6301 28.6564 32.1637 28.6564Z" fill="white"/>
<path d="M33.8253 31.2163C34.2949 31.2163 34.6755 30.8509 34.6755 30.4002C34.6755 29.9494 34.2949 29.584 33.8253 29.584C33.3558 29.584 32.9752 29.9494 32.9752 30.4002C32.9752 30.8509 33.3558 31.2163 33.8253 31.2163Z" fill="white"/>
<path d="M31.7772 31.7359C32.1614 31.7359 32.4728 31.437 32.4728 31.0682C32.4728 30.6994 32.1614 30.4004 31.7772 30.4004C31.3931 30.4004 31.0817 30.6994 31.0817 31.0682C31.0817 31.437 31.3931 31.7359 31.7772 31.7359Z" fill="white"/>
<path d="M29.9609 29.8064C30.4304 29.8064 30.8111 29.441 30.8111 28.9902C30.8111 28.5395 30.4304 28.1741 29.9609 28.1741C29.4914 28.1741 29.1108 28.5395 29.1108 28.9902C29.1108 29.441 29.4914 29.8064 29.9609 29.8064Z" fill="white"/>
<path d="M27.3336 28.0258C27.8672 28.0258 28.2997 27.6106 28.2997 27.0984C28.2997 26.5861 27.8672 26.1709 27.3336 26.1709C26.8001 26.1709 26.3675 26.5861 26.3675 27.0984C26.3675 27.6106 26.8001 28.0258 27.3336 28.0258Z" fill="white"/>
<path d="M27.2946 21.051C27.8281 21.051 28.2607 20.6357 28.2607 20.1235C28.2607 19.6113 27.8281 19.196 27.2946 19.196C26.761 19.196 26.3285 19.6113 26.3285 20.1235C26.3285 20.6357 26.761 21.051 27.2946 21.051Z" fill="white"/>
<path d="M27.7197 17.7864C28.1892 17.7864 28.5698 17.421 28.5698 16.9702C28.5698 16.5195 28.1892 16.1541 27.7197 16.1541C27.2502 16.1541 26.8695 16.5195 26.8695 16.9702C26.8695 17.421 27.2502 17.7864 27.7197 17.7864Z" fill="white"/>
<path d="M28.6473 15.1153C29.0315 15.1153 29.3429 14.8164 29.3429 14.4476C29.3429 14.0788 29.0315 13.7798 28.6473 13.7798C28.2631 13.7798 27.9517 14.0788 27.9517 14.4476C27.9517 14.8164 28.2631 15.1153 28.6473 15.1153Z" fill="white"/>
<path d="M27.0242 13.8542C27.4937 13.8542 27.8744 13.4888 27.8744 13.0381C27.8744 12.5873 27.4937 12.2219 27.0242 12.2219C26.5547 12.2219 26.1741 12.5873 26.1741 13.0381C26.1741 13.4888 26.5547 13.8542 27.0242 13.8542Z" fill="white"/>
<path d="M36.0281 30.0659C36.5616 30.0659 36.9942 29.6506 36.9942 29.1384C36.9942 28.6262 36.5616 28.2109 36.0281 28.2109C35.4945 28.2109 35.062 28.6262 35.062 29.1384C35.062 29.6506 35.4945 30.0659 36.0281 30.0659Z" fill="white"/>
<path d="M24.8215 12.7783C25.3551 12.7783 25.7876 12.363 25.7876 11.8508C25.7876 11.3386 25.3551 10.9233 24.8215 10.9233C24.288 10.9233 23.8554 11.3386 23.8554 11.8508C23.8554 12.363 24.288 12.7783 24.8215 12.7783Z" fill="white"/>
<path d="M25.4785 16.7109C26.012 16.7109 26.4446 16.2956 26.4446 15.7834C26.4446 15.2712 26.012 14.856 25.4785 14.856C24.9449 14.856 24.5124 15.2712 24.5124 15.7834C24.5124 16.2956 24.9449 16.7109 25.4785 16.7109Z" fill="white"/>
<path d="M24.3968 20.4576C25.037 20.4576 25.5561 19.9593 25.5561 19.3446C25.5561 18.73 25.037 18.2317 24.3968 18.2317C23.7565 18.2317 23.2375 18.73 23.2375 19.3446C23.2375 19.9593 23.7565 20.4576 24.3968 20.4576Z" fill="white"/>
<path d="M20.8798 20.4572C21.6267 20.4572 22.2323 19.8759 22.2323 19.1588C22.2323 18.4417 21.6267 17.8604 20.8798 17.8604C20.1328 17.8604 19.5272 18.4417 19.5272 19.1588C19.5272 19.8759 20.1328 20.4572 20.8798 20.4572Z" fill="white"/>
<path d="M16.784 21.3482C17.6377 21.3482 18.3298 20.6839 18.3298 19.8643C18.3298 19.0448 17.6377 18.3804 16.784 18.3804C15.9303 18.3804 15.2383 19.0448 15.2383 19.8643C15.2383 20.6839 15.9303 21.3482 16.784 21.3482Z" fill="white"/>
<path d="M12.3013 23.4631C13.3044 23.4631 14.1176 22.6824 14.1176 21.7194C14.1176 20.7565 13.3044 19.9758 12.3013 19.9758C11.2983 19.9758 10.4851 20.7565 10.4851 21.7194C10.4851 22.6824 11.2983 23.4631 12.3013 23.4631Z" fill="white"/>
<path d="M7.66403 27.0241C8.85918 27.0241 9.82805 26.094 9.82805 24.9466C9.82805 23.7993 8.85918 22.8691 7.66403 22.8691C6.46887 22.8691 5.5 23.7993 5.5 24.9466C5.5 26.094 6.46887 27.0241 7.66403 27.0241Z" fill="white"/>
<path d="M10.4854 19.1222C11.4885 19.1222 12.3017 18.3416 12.3017 17.3786C12.3017 16.4157 11.4885 15.635 10.4854 15.635C9.48234 15.635 8.66918 16.4157 8.66918 17.3786C8.66918 18.3416 9.48234 19.1222 10.4854 19.1222Z" fill="white"/>
<path d="M14.9675 17.0074C15.8212 17.0074 16.5132 16.343 16.5132 15.5235C16.5132 14.7039 15.8212 14.0396 14.9675 14.0396C14.1138 14.0396 13.4217 14.7039 13.4217 15.5235C13.4217 16.343 14.1138 17.0074 14.9675 17.0074Z" fill="white"/>
<path d="M14.3104 13.0748C15.1641 13.0748 15.8561 12.4104 15.8561 11.5909C15.8561 10.7713 15.1641 10.1069 14.3104 10.1069C13.4567 10.1069 12.7647 10.7713 12.7647 11.5909C12.7647 12.4104 13.4567 13.0748 14.3104 13.0748Z" fill="white"/>
<path d="M18.4069 12.1845C19.1538 12.1845 19.7594 11.6032 19.7594 10.8861C19.7594 10.169 19.1538 9.58765 18.4069 9.58765C17.6599 9.58765 17.0544 10.169 17.0544 10.8861C17.0544 11.6032 17.6599 12.1845 18.4069 12.1845Z" fill="white"/>
<path d="M21.9231 12.1846C22.5634 12.1846 23.0824 11.6864 23.0824 11.0717C23.0824 10.457 22.5634 9.95874 21.9231 9.95874C21.2828 9.95874 20.7638 10.457 20.7638 11.0717C20.7638 11.6864 21.2828 12.1846 21.9231 12.1846Z" fill="white"/>
<path d="M22.5802 16.1168C23.2205 16.1168 23.7395 15.6185 23.7395 15.0038C23.7395 14.3892 23.2205 13.8909 22.5802 13.8909C21.94 13.8909 21.4209 14.3892 21.4209 15.0038C21.4209 15.6185 21.94 16.1168 22.5802 16.1168Z" fill="white"/>
<path d="M19.0638 16.1543C19.8108 16.1543 20.4164 15.5729 20.4164 14.8558C20.4164 14.1387 19.8108 13.5574 19.0638 13.5574C18.3169 13.5574 17.7113 14.1387 17.7113 14.8558C17.7113 15.5729 18.3169 16.1543 19.0638 16.1543Z" fill="white"/>
<path d="M15.238 26.0223C15.6221 26.0223 15.9336 25.7233 15.9336 25.3545C15.9336 24.9857 15.6221 24.6868 15.238 24.6868C14.8538 24.6868 14.5424 24.9857 14.5424 25.3545C14.5424 25.7233 14.8538 26.0223 15.238 26.0223Z" fill="white"/>
<path d="M18.0204 25.6887C18.49 25.6887 18.8706 25.3233 18.8706 24.8726C18.8706 24.4218 18.49 24.0564 18.0204 24.0564C17.5509 24.0564 17.1703 24.4218 17.1703 24.8726C17.1703 25.3233 17.5509 25.6887 18.0204 25.6887Z" fill="white"/>
<path d="M21.073 24.5759C21.6066 24.5759 22.0391 24.1606 22.0391 23.6484C22.0391 23.1362 21.6066 22.7209 21.073 22.7209C20.5395 22.7209 20.1069 23.1362 20.1069 23.6484C20.1069 24.1606 20.5395 24.5759 21.073 24.5759Z" fill="white"/>
<path d="M21.8073 27.5435C22.4475 27.5435 22.9666 27.0452 22.9666 26.4306C22.9666 25.8159 22.4475 25.3176 21.8073 25.3176C21.167 25.3176 20.648 25.8159 20.648 26.4306C20.648 27.0452 21.167 27.5435 21.8073 27.5435Z" fill="white"/>
<path d="M18.098 28.248C18.6316 28.248 19.0641 27.8327 19.0641 27.3205C19.0641 26.8083 18.6316 26.3931 18.098 26.3931C17.5645 26.3931 17.1319 26.8083 17.1319 27.3205C17.1319 27.8327 17.5645 28.248 18.098 28.248Z" fill="white"/>
<path d="M14.8129 28.2109C15.2824 28.2109 15.663 27.8455 15.663 27.3948C15.663 26.944 15.2824 26.5786 14.8129 26.5786C14.3434 26.5786 13.9627 26.944 13.9627 27.3948C13.9627 27.8455 14.3434 28.2109 14.8129 28.2109Z" fill="white"/>
<path d="M14.8513 30.7709C15.3849 30.7709 15.8174 30.3557 15.8174 29.8435C15.8174 29.3313 15.3849 28.916 14.8513 28.916C14.3178 28.916 13.8852 29.3313 13.8852 29.8435C13.8852 30.3557 14.3178 30.7709 14.8513 30.7709Z" fill="white"/>
<path d="M18.7932 31.2532C19.4334 31.2532 19.9525 30.755 19.9525 30.1403C19.9525 29.5256 19.4334 29.0273 18.7932 29.0273C18.1529 29.0273 17.6339 29.5256 17.6339 30.1403C17.6339 30.755 18.1529 31.2532 18.7932 31.2532Z" fill="white"/>
<path d="M23.3921 30.771C24.139 30.771 24.7446 30.1896 24.7446 29.4725C24.7446 28.7554 24.139 28.1741 23.3921 28.1741C22.6451 28.1741 22.0396 28.7554 22.0396 29.4725C22.0396 30.1896 22.6451 30.771 23.3921 30.771Z" fill="white"/>
<path d="M26.0965 33.9981C26.9502 33.9981 27.6422 33.3338 27.6422 32.5142C27.6422 31.6947 26.9502 31.0303 26.0965 31.0303C25.2428 31.0303 24.5508 31.6947 24.5508 32.5142C24.5508 33.3338 25.2428 33.9981 26.0965 33.9981Z" fill="white"/>
<path d="M20.4163 34.4438C21.1633 34.4438 21.7688 33.8625 21.7688 33.1454C21.7688 32.4283 21.1633 31.8469 20.4163 31.8469C19.6694 31.8469 19.0638 32.4283 19.0638 33.1454C19.0638 33.8625 19.6694 34.4438 20.4163 34.4438Z" fill="white"/>
<path d="M17.2088 36.9663C17.9557 36.9663 18.5613 36.3849 18.5613 35.6678C18.5613 34.9507 17.9557 34.3694 17.2088 34.3694C16.4618 34.3694 15.8562 34.9507 15.8562 35.6678C15.8562 36.3849 16.4618 36.9663 17.2088 36.9663Z" fill="white"/>
<path d="M19.8751 40.2311C20.7288 40.2311 21.4208 39.5667 21.4208 38.7471C21.4208 37.9276 20.7288 37.2632 19.8751 37.2632C19.0214 37.2632 18.3293 37.9276 18.3293 38.7471C18.3293 39.5667 19.0214 40.2311 19.8751 40.2311Z" fill="white"/>
<path d="M26.9857 40.8249C27.9887 40.8249 28.8019 40.0442 28.8019 39.0813C28.8019 38.1183 27.9887 37.3376 26.9857 37.3376C25.9826 37.3376 25.1694 38.1183 25.1694 39.0813C25.1694 40.0442 25.9826 40.8249 26.9857 40.8249Z" fill="white"/>
<path d="M23.0826 37.7081C23.9363 37.7081 24.6283 37.0437 24.6283 36.2242C24.6283 35.4046 23.9363 34.7402 23.0826 34.7402C22.2289 34.7402 21.5369 35.4046 21.5369 36.2242C21.5369 37.0437 22.2289 37.7081 23.0826 37.7081Z" fill="white"/>
<path d="M29.9613 37.1152C30.9644 37.1152 31.7776 36.3345 31.7776 35.3715C31.7776 34.4086 30.9644 33.6279 29.9613 33.6279C28.9583 33.6279 28.1451 34.4086 28.1451 35.3715C28.1451 36.3345 28.9583 37.1152 29.9613 37.1152Z" fill="white"/>
<path d="M15.5857 33.7762C16.2259 33.7762 16.745 33.2779 16.745 32.6632C16.745 32.0486 16.2259 31.5503 15.5857 31.5503C14.9454 31.5503 14.4264 32.0486 14.4264 32.6632C14.4264 33.2779 14.9454 33.7762 15.5857 33.7762Z" fill="white"/>
<path d="M68.3203 30.5L64.7344 13.0039H67.5703L69.4922 23.0117L70.2305 27.6172H70.4062L74.0977 13.0039H77.5312L81.2812 27.6406H81.4219L82.1602 23.0352L84.0586 13.0039H86.8711L83.2969 30.5H79.6641L75.9023 16.0742H75.7617L71.9414 30.5H68.3203ZM91.5117 15.8164H89.0625V12.8398H91.5117V15.8164ZM91.5117 30.5H89.0625V17.8789H91.5117V30.5ZM106.723 30.5H103.863L99.9258 24.5469L97.8867 26.6328V30.5H95.3906V12.8398H97.8867V23.5156L103.336 17.8789H106.477L101.625 22.8242L106.723 30.5ZM111.246 15.8164H108.797V12.8398H111.246V15.8164ZM111.246 30.5H108.797V17.8789H111.246V30.5Z" fill="white"/>
</g>
<defs>
<clipPath id="clip0_22_3564">
<rect width="113" height="46.2" fill="white" transform="translate(0.5 0.399902)"/>
</clipPath>
</defs>
</svg>
