<svg viewBox="0 0 24 24" width="24" height="24"  fill="none" xmlns="http://www.w3.org/2000/svg">
<path d="M4.00001 12.0039C4.00052 12.1381 4.02745 12.266 4.07588 12.3828C4.12468 12.5007 4.19702 12.6112 4.29289 12.7071L10.2929 18.7071C10.6834 19.0976 11.3166 19.0976 11.7071 18.7071C12.0976 18.3166 12.0976 17.6834 11.7071 17.2929L7.41421 13H19C19.5523 13 20 12.5523 20 12C20 11.4477 19.5523 11 19 11H7.41421L11.7071 6.70711C12.0976 6.31658 12.0976 5.68342 11.7071 5.29289C11.3166 4.90237 10.6834 4.90237 10.2929 5.29289L4.29346 11.2923C4.19714 11.3886 4.124 11.5003 4.07519 11.6189C4.02703 11.7356 4.00033 11.8635 4 11.9975L4 12L4.00001 12.0039Z" fill="#171D26"/>
</svg>