<svg viewBox="0 0 24 24" width="24" height="24"  fill="none" xmlns="http://www.w3.org/2000/svg">
<path d="M11.4498 15.3352C11.8379 15.5915 12.3654 15.5488 12.7071 15.2071C12.707 15.2072 12.7072 15.207 12.7071 15.2071L17.7071 10.2071C18.0976 9.81658 18.0976 9.18342 17.7071 8.79289C17.3166 8.40237 16.6834 8.40237 16.2929 8.79289L12 13.0858L7.70711 8.79289C7.31658 8.40237 6.68342 8.40237 6.29289 8.79289C5.90237 9.18342 5.90237 9.81658 6.29289 10.2071L11.2926 15.2068C11.2927 15.2069 11.2925 15.2067 11.2926 15.2068C11.3414 15.2556 11.3943 15.2986 11.4498 15.3352Z" fill="#171D26"/>
</svg>