<svg viewBox="0 0 24 24" width="24" height="24"  fill="none" xmlns="http://www.w3.org/2000/svg">
<path d="M6.29566 17.488C6.39089 17.5825 6.5004 17.654 6.61722 17.7023C6.73512 17.7512 6.86441 17.7782 7 17.7782L15.0711 17.7782C15.6234 17.7782 16.0711 17.3305 16.0711 16.7782C16.0711 16.2259 15.6234 15.7782 15.0711 15.7782L9.41421 15.7782L17.4853 7.70711C17.8758 7.31658 17.8758 6.68342 17.4853 6.29289C17.0948 5.90237 16.4616 5.90237 16.0711 6.29289L8 14.364L8 8.70711C8 8.15482 7.55228 7.70711 7 7.70711C6.44772 7.70711 6 8.15482 6 8.70711L6 16.7774C6 16.9136 6.02724 17.0443 6.07657 17.1626C6.12506 17.2792 6.19659 17.3885 6.29116 17.4835L6.29289 17.4853L6.29566 17.488Z" fill="#171D26"/>
</svg>