<svg viewBox="0 0 24 24" width="24" height="24"  fill="none" xmlns="http://www.w3.org/2000/svg">
<path d="M8.16475 11.4498C7.90847 11.8379 7.95118 12.3654 8.29289 12.7071C8.2928 12.707 8.29299 12.7072 8.29289 12.7071L13.2929 17.7071C13.6834 18.0976 14.3166 18.0976 14.7071 17.7071C15.0976 17.3166 15.0976 16.6834 14.7071 16.2929L10.4142 12L14.7071 7.70711C15.0976 7.31658 15.0976 6.68342 14.7071 6.29289C14.3166 5.90237 13.6834 5.90237 13.2929 6.29289L8.29319 11.2926C8.29309 11.2927 8.29328 11.2925 8.29319 11.2926C8.24437 11.3414 8.20136 11.3943 8.16475 11.4498Z" fill="#171D26"/>
</svg>