<svg viewBox="0 0 24 24" width="24" height="24"  fill="none" xmlns="http://www.w3.org/2000/svg">
<path d="M20 12.0039C19.9995 12.1381 19.9725 12.266 19.9241 12.3828C19.8753 12.5007 19.803 12.6112 19.7071 12.7071L13.7071 18.7071C13.3166 19.0976 12.6834 19.0976 12.2929 18.7071C11.9024 18.3166 11.9024 17.6834 12.2929 17.2929L16.5858 13H5C4.44771 13 4 12.5523 4 12C4 11.4477 4.44771 11 5 11H16.5858L12.2929 6.70711C11.9024 6.31658 11.9024 5.68342 12.2929 5.29289C12.6834 4.90237 13.3166 4.90237 13.7071 5.29289L19.7065 11.2923C19.8029 11.3886 19.876 11.5003 19.9248 11.6189C19.973 11.7356 19.9997 11.8635 20 11.9975L20 12L20 12.0039Z" fill="#171D26"/>
</svg>