<svg viewBox="0 0 24 24" width="24" height="24"  fill="none" xmlns="http://www.w3.org/2000/svg">
<path d="M19.4999 11.9585L19.5 12L19.4999 12.0415C19.4953 12.8699 20.1632 13.5452 20.9916 13.5498C21.82 13.5544 22.4953 12.8865 22.4998 12.0581L22.5 12L22.4998 11.9419C22.4953 11.1135 21.82 10.4456 20.9916 10.4502C20.1632 10.4548 19.4953 11.1301 19.4999 11.9585Z" fill="#171D26"/>
<path d="M17.3326 6.72615C17.9151 7.31517 18.8649 7.32042 19.4539 6.73788C20.0429 6.15534 20.0481 5.20561 19.4656 4.61659L19.4246 4.57538L19.3834 4.5344C18.7944 3.95186 17.8447 3.95711 17.2621 4.54612C16.6796 5.13514 16.6848 6.08487 17.2739 6.66741L17.3033 6.6967L17.3326 6.72615Z" fill="#171D26"/>
<path d="M19.4656 19.3834C20.0481 18.7944 20.0429 17.8447 19.4539 17.2621C18.8649 16.6796 17.9151 16.6848 17.3326 17.2739L17.3033 17.3033L17.2739 17.3326C16.6848 17.9151 16.6796 18.8649 17.2621 19.4539C17.8447 20.0429 18.7944 20.0481 19.3834 19.4656L19.4246 19.4246L19.4656 19.3834Z" fill="#171D26"/>
<path d="M12.0415 4.50011C12.8699 4.5047 13.5452 3.83685 13.5498 3.00843C13.5544 2.18002 12.8865 1.50474 12.0581 1.50016L12 1.5C11.1716 1.5 10.5 2.17157 10.5 3C10.5 3.82843 11.1716 4.5 12 4.5L12.0415 4.50011Z" fill="#171D26"/>
<path d="M12.0581 22.4998C12.8865 22.4953 13.5544 21.82 13.5498 20.9916C13.5452 20.1632 12.8699 19.4953 12.0415 19.4999L12 19.5C11.1716 19.5 10.5 20.1716 10.5 21C10.5 21.8284 11.1716 22.5 12 22.5L12.0581 22.4998Z" fill="#171D26"/>
<path fill-rule="evenodd" clip-rule="evenodd" d="M6 12C6 8.68629 8.68629 6 12 6C15.3137 6 18 8.68629 18 12C18 15.3137 15.3137 18 12 18C8.68629 18 6 15.3137 6 12ZM12 16C9.79086 16 8 14.2091 8 12C8 9.79086 9.79086 8 12 8C14.2091 8 16 9.79086 16 12C16 14.2091 14.2091 16 12 16Z" fill="#171D26"/>
</svg>