<svg viewBox="0 0 24 24" width="24" height="24"  fill="none" xmlns="http://www.w3.org/2000/svg">
<path d="M4.60896 8.93831C4.20693 9.90892 4 10.9492 4 11.9998C4 13.0504 4.20693 14.0906 4.60896 15.0612C5.011 16.0319 5.60028 16.9138 6.34314 17.6566L4.92893 19.0708C4.00035 18.1423 3.26375 17.0399 2.7612 15.8266C2.25866 14.6134 2 13.313 2 11.9998C2 10.6866 2.25866 9.3862 2.76121 8.17294C3.26375 6.95969 4.00035 5.8573 4.92893 4.92871L6.34315 6.34292C5.60028 7.08579 5.011 7.96771 4.60896 8.93831Z" fill="#171D26"/>
<path d="M20 11.9998C20 10.9492 19.7931 9.90892 19.391 8.93831C18.989 7.96771 18.3997 7.08579 17.6569 6.34292L19.0711 4.92871C19.9997 5.8573 20.7362 6.95969 21.2388 8.17294C21.7413 9.3862 22 10.6866 22 11.9998C22 13.313 21.7413 14.6134 21.2388 15.8266C20.7362 17.0399 19.9997 18.1423 19.0711 19.0708L17.6569 17.6566C18.3997 16.9138 18.989 16.0319 19.391 15.0612C19.7931 14.0906 20 13.0504 20 11.9998Z" fill="#171D26"/>
<path fill-rule="evenodd" clip-rule="evenodd" d="M12 17.9998C15.3137 17.9998 18 15.3135 18 11.9998C18 8.68607 15.3137 5.99978 12 5.99978C8.68629 5.99978 6 8.68607 6 11.9998C6 15.3135 8.68629 17.9998 12 17.9998ZM12 15.9998C14.2091 15.9998 16 14.2089 16 11.9998C16 9.79064 14.2091 7.99978 12 7.99978C9.79086 7.99978 8 9.79064 8 11.9998C8 14.2089 9.79086 15.9998 12 15.9998Z" fill="#171D26"/>
</svg>