<svg viewBox="0 0 24 24" width="24" height="24"  fill="none" xmlns="http://www.w3.org/2000/svg">
<path fill-rule="evenodd" clip-rule="evenodd" d="M12 20C16.4183 20 20 16.4183 20 12C20 7.58172 16.4183 4 12 4C7.58172 4 4 7.58172 4 12C4 16.4183 7.58172 20 12 20ZM13 8C13 7.44772 12.5523 7 12 7C11.4477 7 11 7.44772 11 8V12C11 12.2652 11.1054 12.5196 11.2929 12.7071L14.1213 15.5355C14.5118 15.9261 15.145 15.9261 15.5355 15.5355C15.9261 15.145 15.9261 14.5118 15.5355 14.1213L13 11.5858V8Z" fill="#171D26"/>
</svg>