<svg viewBox="0 0 24 24" width="24" height="24"  fill="none" xmlns="http://www.w3.org/2000/svg">
<path fill-rule="evenodd" clip-rule="evenodd" d="M18.7071 6.70711C19.0976 6.31658 19.0976 5.68342 18.7071 5.29289C18.3166 4.90237 17.6834 4.90237 17.2929 5.29289L11.9999 10.5859L6.70735 5.29338C6.31683 4.90286 5.68366 4.90286 5.29314 5.29338C4.90261 5.68391 4.90261 6.31707 5.29314 6.70759L10.5857 12.0001L5.29289 17.2929C4.90237 17.6834 4.90237 18.3166 5.29289 18.7071C5.68342 19.0976 6.31658 19.0976 6.70711 18.7071L11.9999 13.4143L17.2931 18.7076C17.6837 19.0981 18.3168 19.0981 18.7074 18.7076C19.0979 18.3171 19.0979 17.6839 18.7074 17.2934L13.4141 12.0001L18.7071 6.70711Z" fill="#171D26"/>
</svg>