<svg viewBox="0 0 24 24" width="24" height="24"  fill="none" xmlns="http://www.w3.org/2000/svg">
<path d="M5 14V16C5 17.6569 8.13401 19 12 19C15.866 19 19 17.6569 19 16V14C19 15.6569 15.866 17 12 17C8.13401 17 5 15.6569 5 14Z" fill="#171D26"/>
<path d="M5 10L5 12C5 13.6569 8.13401 15 12 15C15.866 15 19 13.6569 19 12V10C19 11.6569 15.866 13 12 13C8.13401 13 5 11.6569 5 10Z" fill="#171D26"/>
<path d="M19 8C19 9.65685 15.866 11 12 11C8.13401 11 5 9.65685 5 8C5 6.34315 8.13401 5 12 5C15.866 5 19 6.34315 19 8Z" fill="#171D26"/>
</svg>