<svg xmlns="http://www.w3.org/2000/svg" width="24" height="24" fill="none" viewBox="0 0 24 24">
  <path fill="#171D26" d="m12 19.071 1.828-1.828-1.414-1.414-1.828 1.828c-.59.59-1.297.884-2.122.884a2.893 2.893 0 0 1-2.12-.884 2.893 2.893 0 0 1-.885-2.121c0-.825.295-1.532.884-2.122l1.829-1.828-1.415-1.414L4.93 12c-.978.978-1.467 2.157-1.467 3.536s.489 2.557 1.467 3.535c.978.978 2.157 1.467 3.535 1.467 1.38 0 2.558-.489 3.536-1.467Zm3.828-6.657 1.415 1.415L19.07 12c.978-.978 1.467-2.156 1.467-3.535 0-1.38-.489-2.558-1.467-3.536-.978-.978-2.157-1.467-3.536-1.467-1.378 0-2.557.489-3.535 1.467l-1.828 1.829 1.414 1.414 1.828-1.829a2.893 2.893 0 0 1 2.122-.884 2.89 2.89 0 0 1 2.12.884c.59.59.885 1.297.885 2.122s-.295 1.532-.884 2.121l-1.829 1.828ZM4.293 5.707l14 14 1.414-1.414-14-14-1.414 1.414Z"/>
</svg>
