<svg viewBox="0 0 24 24" width="24" height="24"  fill="none" xmlns="http://www.w3.org/2000/svg">
<path fill-rule="evenodd" clip-rule="evenodd" d="M12 21C16.9706 21 21 16.9706 21 12C21 7.02944 16.9706 3 12 3C7.02944 3 3 7.02944 3 12C3 16.9706 7.02944 21 12 21ZM12.0003 17.8C12.663 17.8 13.2003 17.2627 13.2003 16.6C13.2003 15.9373 12.663 15.4 12.0003 15.4C11.3376 15.4 10.8003 15.9373 10.8003 16.6C10.8003 17.2627 11.3376 17.8 12.0003 17.8ZM10.8003 8.2C10.8003 7.53726 11.3376 7 12.0003 7C12.663 7 13.2003 7.53726 13.2003 8.2V11.8C13.2003 12.4627 12.663 13 12.0003 13C11.3376 13 10.8003 12.4627 10.8003 11.8V8.2Z" fill="#171D26"/>
</svg>