<svg viewBox="0 0 24 24" width="24" height="24"  fill="none" xmlns="http://www.w3.org/2000/svg">
<path d="M22 6C22 6.55228 21.5523 7 21 7H3C2.44771 7 2 6.55228 2 6C2 5.44772 2.44771 5 3 5H21C21.5523 5 22 5.44772 22 6Z" fill="#171D26"/>
<path d="M19 12C19 12.5523 18.5523 13 18 13H6C5.44771 13 5 12.5523 5 12C5 11.4477 5.44771 11 6 11H18C18.5523 11 19 11.4477 19 12Z" fill="#171D26"/>
<path d="M16 19C16.5523 19 17 18.5523 17 18C17 17.4477 16.5523 17 16 17H8C7.44771 17 7 17.4477 7 18C7 18.5523 7.44771 19 8 19H16Z" fill="#171D26"/>
</svg>