<svg viewBox="0 0 24 24" width="24" height="24"  fill="none" xmlns="http://www.w3.org/2000/svg">
<path d="M12 14C13.1046 14 14 13.1046 14 12C14 10.8954 13.1046 10 12 10C10.8954 10 10 10.8954 10 12C10 13.1046 10.8954 14 12 14Z" fill="#171D26"/>
<path fill-rule="evenodd" clip-rule="evenodd" d="M4 10C4 9.37049 4.29639 8.77771 4.8 8.4L10.8 3.9C11.5111 3.36667 12.4889 3.36667 13.2 3.9L19.2 8.4C19.7036 8.77771 20 9.37049 20 10V19C20 20.1046 19.1046 21 18 21H6C4.89543 21 4 20.1046 4 19V10ZM18 10V19H6V10L12 5.5L18 10Z" fill="#171D26"/>
</svg>