<svg xmlns="http://www.w3.org/2000/svg" width="24" height="24" fill="none" viewBox="0 0 24 24">
  <path fill="#171D26" d="M15 11a2 2 0 1 0 0-4 2 2 0 0 0 0 4Z"/>
  <path fill="#171D26" fill-rule="evenodd" d="M7 3a4 4 0 0 0-4 4v10a4 4 0 0 0 4 4h10a4 4 0 0 0 4-4V7a4 4 0 0 0-4-4H7Zm10 2H7a2 2 0 0 0-2 2v5.634l2.994-1.437a2 2 0 0 1 2.132.255l4.396 3.597L19 11.629V7a2 2 0 0 0-2-2ZM5 17v-2.148L8.86 13l4.395 3.596a2 2 0 0 0 2.48.042L19 14.145V17a2 2 0 0 1-2 2H7a2 2 0 0 1-2-2Z" clip-rule="evenodd"/>
</svg>
