<svg viewBox="0 0 24 24" width="24" height="24"  fill="none" xmlns="http://www.w3.org/2000/svg">
<path d="M12 2C12.5523 2 13 2 13 2V11L15 9L16.4142 10.4142L12.7071 13.7071C12.6583 13.7559 12.6057 13.7986 12.5502 13.8352C12.1621 14.0915 11.6346 14.0488 11.2929 13.7071L7.58579 10.4142L9 9L11 11L11 2C11 2 11.4477 2 12 2Z" fill="#171D26"/>
<path d="M8 4C3.72544 4 1 7.17527 1 11C1 14.4059 3.6272 17.141 6.975 17.829C7.44597 17.9258 7.66667 18.2627 7.66667 18.5V20.5427C7.66667 21.971 9.47385 22.591 10.3507 21.4636L13.0446 18H15.3333C19.4658 18 23 14.9625 23 11C23 7.17527 20.2746 4 16 4C15.4477 4 15 4.44772 15 5C15 5.55228 15.4477 6 16 6C19.0892 6 21 8.19732 21 11C21 13.6649 18.5647 16 15.3333 16H12.0665L9.66667 19.0855V18.5C9.66667 17.7713 9.44748 16.9544 9 16.5C8.57578 16.0693 7.93824 15.9852 7.37763 15.87C4.7966 15.3395 3 13.2993 3 11C3 8.19732 4.91076 6 8 6C8.55228 6 9 5.55228 9 5C9 4.44772 8.55228 4 8 4Z" fill="#171D26"/>
</svg>