<svg viewBox="0 0 24 24" width="24" height="24"  fill="none" xmlns="http://www.w3.org/2000/svg">
<path fill-rule="evenodd" clip-rule="evenodd" d="M12 21C16.9706 21 21 16.9706 21 12C21 7.02944 16.9706 3 12 3C7.02944 3 3 7.02944 3 12C3 16.9706 7.02944 21 12 21ZM12.0003 6.6C11.3376 6.6 10.8003 7.13726 10.8003 7.8C10.8003 8.46274 11.3376 9 12.0003 9C12.663 9 13.2003 8.46274 13.2003 7.8C13.2003 7.13726 12.663 6.6 12.0003 6.6ZM13.2003 15.6C13.2003 16.2627 12.663 16.8 12.0003 16.8C11.3376 16.8 10.8003 16.2627 10.8003 15.6L10.8003 12C10.8003 11.3373 11.3376 10.8 12.0003 10.8C12.663 10.8 13.2003 11.3373 13.2003 12V15.6Z" fill="#171D26"/>
</svg>