<svg xmlns="http://www.w3.org/2000/svg" width="24" height="24" fill="none" viewBox="0 0 24 24">
  <path fill="#171D26" d="M18.27 2.259c0 .695-.568 1.259-1.268 1.259-.7 0-1.267-.564-1.267-1.259S16.302 1 17.002 1s1.268.564 1.268 1.259Zm1.425 17.785c0 .695-.568 1.259-1.268 1.259-.7 0-1.267-.564-1.267-1.26 0-.695.567-1.258 1.267-1.258s1.268.563 1.268 1.259Zm-2.33-13.379a1.06 1.06 0 0 0 1.063-1.056 1.06 1.06 0 0 0-1.063-1.057A1.06 1.06 0 0 0 16.3 5.61a1.06 1.06 0 0 0 1.064 1.056Zm3.891-.651a1.06 1.06 0 0 1-1.063 1.056 1.06 1.06 0 0 1-1.064-1.056 1.06 1.06 0 0 1 1.064-1.057 1.06 1.06 0 0 1 1.063 1.057Zm-4.253 3.329c.5 0 .905-.403.905-.9 0-.496-.405-.9-.905-.9s-.906.404-.906.9c0 .497.406.9.906.9Zm3.734-.52c0 .497-.405.9-.905.9a.903.903 0 0 1-.906-.9c0-.496.405-.9.906-.9.5 0 .905.404.905.9Zm1.357 1.777c.5 0 .906-.402.906-.899s-.405-.9-.906-.9c-.5 0-.905.403-.905.9s.405.9.905.9Zm-2.309.495a.789.789 0 0 1-.792.787.789.789 0 0 1-.791-.787c0-.434.354-.786.791-.786.438 0 .792.352.792.786Zm-3.62.404a.789.789 0 0 0 .792-.787.789.789 0 0 0-.792-.786.789.789 0 0 0-.791.786c0 .435.354.787.791.787Zm5.907.471a.789.789 0 0 1-.791.787.789.789 0 0 1-.792-.786.79.79 0 0 1 .792-.787.79.79 0 0 1 .791.787Zm-4.21 1.554c.375 0 .68-.302.68-.675a.677.677 0 0 0-.68-.675.678.678 0 0 0-.68.675c0 .373.304.675.68.675Zm2.968.178a.678.678 0 0 1-.68.676.677.677 0 0 1-.68-.676c0-.373.304-.675.68-.675.375 0 .68.302.68.675Zm-5.774-.582c.375 0 .68-.302.68-.675a.678.678 0 0 0-.68-.675.678.678 0 0 0-.68.675c0 .373.304.675.68.675Zm2.127.943c0 .31-.254.561-.566.561a.564.564 0 0 1-.566-.562c0-.31.253-.561.566-.561.312 0 .566.251.566.562Zm.407 2.114a.496.496 0 0 0 .498-.494.496.496 0 0 0-.498-.495.496.496 0 0 0-.498.495c0 .273.223.494.498.494Zm-.791-.09a.407.407 0 0 1-.408.405.407.407 0 0 1-.408-.405c0-.223.182-.405.408-.405.225 0 .408.181.408.405Zm-1.472-.765a.496.496 0 0 0 .498-.494.496.496 0 0 0-.498-.495.496.496 0 0 0-.498.495c0 .273.223.494.498.494Zm-.973-1.64c0 .31-.254.562-.566.562a.564.564 0 0 1-.566-.562c0-.31.253-.562.566-.562.312 0 .566.251.566.562Zm-.588-3.666a.564.564 0 0 0 .566-.562.564.564 0 0 0-.566-.562.564.564 0 0 0-.565.562c0 .31.253.562.565.562Zm.745-2.473a.496.496 0 0 1-.497.494.496.496 0 0 1-.498-.494c0-.273.223-.494.498-.494s.498.22.498.494Zm.047-1.123a.406.406 0 0 0 .407-.406.406.406 0 0 0-.407-.405.407.407 0 0 0-.408.405c0 .224.182.406.408.406Zm-.452-1.26a.496.496 0 0 1-.498.494.496.496 0 0 1-.498-.494c0-.273.223-.494.498-.494s.498.22.498.494Zm4.776 10.32a.564.564 0 0 0 .566-.561.564.564 0 0 0-.566-.562.564.564 0 0 0-.566.562c0 .31.253.562.566.562ZM12.883 4.439c0 .31-.254.562-.566.562a.564.564 0 0 1-.566-.562c0-.31.254-.562.566-.562.312 0 .566.251.566.562Zm-.18 2.945a.564.564 0 0 0 .566-.562.564.564 0 0 0-.566-.561.564.564 0 0 0-.566.561c0 .31.253.562.566.562Zm.045 1.597a.677.677 0 0 1-.68.676.678.678 0 0 1-.679-.676c0-.373.304-.675.68-.675.375 0 .68.302.68.675Zm-2.74.676a.789.789 0 0 0 .791-.786.789.789 0 0 0-.791-.787.789.789 0 0 0-.792.787c0 .434.354.786.792.786Zm-1.494-.36c0 .497-.405.9-.905.9a.903.903 0 0 1-.906-.9c0-.497.406-.9.906-.9s.905.403.905.9Zm-3.529 2.18a1.06 1.06 0 0 0 1.063-1.056 1.06 1.06 0 0 0-1.063-1.056A1.06 1.06 0 0 0 3.92 10.42a1.06 1.06 0 0 0 1.064 1.056Zm-1.45.9c0 .696-.568 1.26-1.268 1.26-.7 0-1.267-.564-1.267-1.26 0-.695.567-1.259 1.267-1.259s1.268.564 1.268 1.26Zm.386-3.531A1.06 1.06 0 0 0 4.985 7.79 1.06 1.06 0 0 0 3.92 6.733 1.06 1.06 0 0 0 2.858 7.79 1.06 1.06 0 0 0 3.92 8.846Zm3.53-2.181c0 .497-.405.9-.906.9a.903.903 0 0 1-.905-.9c0-.496.405-.9.905-.9s.906.404.906.9ZM6.162 5.182c.5 0 .905-.403.905-.9 0-.496-.405-.9-.905-.9s-.906.404-.906.9c0 .497.406.9.906.9Zm3.19-1.326a.789.789 0 0 1-.791.787.789.789 0 0 1-.792-.787c0-.434.354-.786.792-.786.437 0 .791.352.791.786Zm1.268.788c.375 0 .68-.303.68-.675a.677.677 0 0 0-.68-.676.678.678 0 0 0-.68.675c0 .373.304.676.68.676Zm1.063 1.708a.678.678 0 0 1-.68.675.677.677 0 0 1-.68-.675c0-.373.305-.675.68-.675.375 0 .68.302.68.675Zm-2.739.695a.789.789 0 0 0 .792-.786.789.789 0 0 0-.792-.786.789.789 0 0 0-.791.786c0 .434.354.786.791.786Zm-1.832 5.578a.407.407 0 0 1-.408.405.407.407 0 0 1-.408-.405c0-.223.182-.405.408-.405.225 0 .408.181.408.405Zm1.221.201a.496.496 0 0 0 .497-.494.496.496 0 0 0-.497-.495.496.496 0 0 0-.498.495c0 .273.223.494.498.494Zm2.354-1.236c0 .31-.253.562-.565.562a.564.564 0 0 1-.566-.562c0-.31.253-.562.566-.562.312 0 .565.252.565.562Zm-.135 2.361c.375 0 .68-.302.68-.675a.677.677 0 0 0-.68-.675.677.677 0 0 0-.68.675c0 .373.304.675.68.675Zm-1.608-.135c0 .31-.253.562-.566.562a.564.564 0 0 1-.565-.562c0-.31.253-.562.565-.562.313 0 .566.252.566.562Zm-2.488.538a.496.496 0 0 0 .498-.494.496.496 0 0 0-.498-.495.496.496 0 0 0-.498.495c0 .273.223.494.498.494Zm.588.991c0 .31-.254.562-.566.562a.564.564 0 0 1-.566-.562c0-.31.253-.562.566-.562.312 0 .566.252.566.562Zm1.742.855c.376 0 .68-.303.68-.675a.677.677 0 0 0-.68-.676.677.677 0 0 0-.68.675c0 .373.305.676.68.676Zm3.484-1.08a.789.789 0 0 1-.79.786.789.789 0 0 1-.792-.786c0-.435.354-.787.791-.787.438 0 .792.352.792.787Zm.794 2.743c.5 0 .906-.402.906-.9 0-.496-.406-.899-.906-.899s-.905.403-.905.9.405.9.905.9Zm-2.536-.518a.789.789 0 0 1-.792.786.789.789 0 0 1-.792-.787.79.79 0 0 1 .792-.786.79.79 0 0 1 .792.787Zm-2.669 2.316a.789.789 0 0 0 .791-.786.789.789 0 0 0-.792-.786.789.789 0 0 0-.791.786c0 .434.354.786.792.786Zm2.466 1.079c0 .497-.405.9-.905.9a.903.903 0 0 1-.906-.9c0-.496.405-.9.906-.9.5 0 .905.404.905.9ZM13.584 22a1.06 1.06 0 0 0 1.064-1.056 1.06 1.06 0 0 0-1.064-1.057 1.06 1.06 0 0 0-1.063 1.057A1.06 1.06 0 0 0 13.584 22Zm-1.379-2.788c0 .497-.405.9-.905.9a.903.903 0 0 1-.906-.9c0-.497.405-.9.905-.9s.906.403.906.9Zm3.123.54a1.06 1.06 0 0 0 1.063-1.057 1.06 1.06 0 0 0-1.063-1.056 1.06 1.06 0 0 0-1.064 1.056 1.06 1.06 0 0 0 1.064 1.057Zm-7.741-2.699a.677.677 0 0 1-.68.676.677.677 0 0 1-.68-.676c0-.373.305-.675.68-.675.376 0 .68.302.68.675Z"/>
</svg>
