<svg width="128" height="32" viewBox="0 0 128 32" fill="none" xmlns="http://www.w3.org/2000/svg">
<g id="Group">
<g id="Group 7895">
<g id="Group_2">
<g id="Group_3">
<path id="Vector" d="M52.3631 5.96094H49.9277V26.6194H52.3631V5.96094Z" fill="#171D26"/>
</g>
</g>
<g id="Group_4">
<g id="Group_5">
<path id="Vector_2" d="M60.2031 16.273C60.2031 10.4844 65.2175 5.58203 71.1142 5.58203C77.0452 5.58203 81.9878 10.4479 81.9878 16.273C81.9878 22.0982 77.011 26.964 71.1142 26.964C65.2517 26.9972 60.2031 22.0982 60.2031 16.273ZM79.5524 16.273C79.5524 11.6826 75.7044 7.77599 71.1142 7.77599C66.5241 7.77599 62.6419 11.6826 62.6419 16.273C62.6419 20.8999 66.5241 24.8033 71.1142 24.8033C75.7044 24.8033 79.5524 20.8999 79.5524 16.273Z" fill="#171D26"/>
</g>
</g>
<g id="Group_6">
<g id="Group_7">
<path id="Vector_3" d="M94.4861 8.18809H87.3203V5.96094H104.056V8.18809H96.8872V26.6194H94.4519L94.4861 8.18809Z" fill="#171D26"/>
</g>
</g>
<g id="Group_8">
<g id="Group_9">
<path id="Vector_4" d="M116.835 8.83865L108.749 26.6194H106.102L114.964 7.12596C115.282 6.4057 116.024 5.96094 116.801 5.96094C117.611 5.96094 118.319 6.4057 118.637 7.12596L127.5 26.6194H124.852L116.835 8.83865Z" fill="#171D26"/>
</g>
</g>
</g>
<g id="Group_10">
<g id="Group_11">
<path id="Vector_5" d="M25.4614 3.83695C26.5532 3.83695 27.4384 2.97802 27.4384 1.91847C27.4384 0.85893 26.5532 0 25.4614 0C24.3695 0 23.4844 0.85893 23.4844 1.91847C23.4844 2.97802 24.3695 3.83695 25.4614 3.83695Z" fill="#171D26"/>
</g>
<g id="Group_12">
<path id="Vector_6" d="M27.686 30.9385C28.7779 30.9385 29.663 30.0796 29.663 29.02C29.663 27.9605 28.7779 27.1016 27.686 27.1016C26.5941 27.1016 25.709 27.9605 25.709 29.02C25.709 30.0796 26.5941 30.9385 27.686 30.9385Z" fill="#171D26"/>
</g>
<g id="Group_13">
<path id="Vector_7" d="M26.0261 8.63365C26.9423 8.63365 27.685 7.91292 27.685 7.02385C27.685 6.13479 26.9423 5.41406 26.0261 5.41406C25.1099 5.41406 24.3672 6.13479 24.3672 7.02385C24.3672 7.91292 25.1099 8.63365 26.0261 8.63365Z" fill="#171D26"/>
</g>
<g id="Group_14">
<path id="Vector_8" d="M30.4382 9.25083C31.3544 9.25083 32.0971 8.5301 32.0971 7.64104C32.0971 6.75198 31.3544 6.03125 30.4382 6.03125C29.522 6.03125 28.7793 6.75198 28.7793 7.64104C28.7793 8.5301 29.522 9.25083 30.4382 9.25083Z" fill="#171D26"/>
</g>
<g id="Group_15">
<path id="Vector_9" d="M25.4615 12.7123C26.2416 12.7123 26.8741 12.0986 26.8741 11.3415C26.8741 10.5844 26.2416 9.9707 25.4615 9.9707C24.6813 9.9707 24.0488 10.5844 24.0488 11.3415C24.0488 12.0986 24.6813 12.7123 25.4615 12.7123Z" fill="#171D26"/>
</g>
<g id="Group_16">
<path id="Vector_10" d="M29.8736 13.2924C30.6537 13.2924 31.2862 12.6787 31.2862 11.9216C31.2862 11.1645 30.6537 10.5508 29.8736 10.5508C29.0934 10.5508 28.4609 11.1645 28.4609 11.9216C28.4609 12.6787 29.0934 13.2924 29.8736 13.2924Z" fill="#171D26"/>
</g>
<g id="Group_17">
<path id="Vector_11" d="M33.4048 14.6303C34.185 14.6303 34.8174 14.0166 34.8174 13.2595C34.8174 12.5024 34.185 11.8887 33.4048 11.8887C32.6246 11.8887 31.9922 12.5024 31.9922 13.2595C31.9922 14.0166 32.6246 14.6303 33.4048 14.6303Z" fill="#171D26"/>
</g>
<g id="Group_18">
<path id="Vector_12" d="M28.5688 16.582C29.2507 16.582 29.8035 16.0455 29.8035 15.3838C29.8035 14.722 29.2507 14.1855 28.5688 14.1855C27.8868 14.1855 27.334 14.722 27.334 15.3838C27.334 16.0455 27.8868 16.582 28.5688 16.582Z" fill="#171D26"/>
</g>
<g id="Group_19">
<path id="Vector_13" d="M24.1547 15.998C24.8366 15.998 25.3895 15.4615 25.3895 14.7998C25.3895 14.138 24.8366 13.6016 24.1547 13.6016C23.4727 13.6016 22.9199 14.138 22.9199 14.7998C22.9199 15.4615 23.4727 15.998 24.1547 15.998Z" fill="#171D26"/>
</g>
<g id="Group_20">
<path id="Vector_14" d="M32.1352 17.916C32.8171 17.916 33.3699 17.3795 33.3699 16.7177C33.3699 16.056 32.8171 15.5195 32.1352 15.5195C31.4532 15.5195 30.9004 16.056 30.9004 16.7177C30.9004 17.3795 31.4532 17.916 32.1352 17.916Z" fill="#171D26"/>
</g>
<g id="Group_21">
<path id="Vector_15" d="M26.8025 19.0852C27.3881 19.0852 27.8628 18.6246 27.8628 18.0563C27.8628 17.488 27.3881 17.0273 26.8025 17.0273C26.2169 17.0273 25.7422 17.488 25.7422 18.0563C25.7422 18.6246 26.2169 19.0852 26.8025 19.0852Z" fill="#171D26"/>
</g>
<g id="Group_22">
<path id="Vector_16" d="M30.3709 20.386C30.9565 20.386 31.4312 19.9253 31.4312 19.3571C31.4312 18.7888 30.9565 18.3281 30.3709 18.3281C29.7853 18.3281 29.3105 18.7888 29.3105 19.3571C29.3105 19.9253 29.7853 20.386 30.3709 20.386Z" fill="#171D26"/>
</g>
<g id="Group_23">
<path id="Vector_17" d="M22.4256 18.468C23.0112 18.468 23.4859 18.0074 23.4859 17.4391C23.4859 16.8708 23.0112 16.4102 22.4256 16.4102C21.84 16.4102 21.3652 16.8708 21.3652 17.4391C21.3652 18.0074 21.84 18.468 22.4256 18.468Z" fill="#171D26"/>
</g>
<g id="Group_24">
<path id="Vector_18" d="M24.861 20.7615C25.3484 20.7615 25.7435 20.3781 25.7435 19.9052C25.7435 19.4322 25.3484 19.0488 24.861 19.0488C24.3736 19.0488 23.9785 19.4322 23.9785 19.9052C23.9785 20.3781 24.3736 20.7615 24.861 20.7615Z" fill="#171D26"/>
</g>
<g id="Group_25">
<path id="Vector_19" d="M26.378 23.128C26.8068 23.128 27.1544 22.7907 27.1544 22.3745C27.1544 21.9584 26.8068 21.6211 26.378 21.6211C25.9492 21.6211 25.6016 21.9584 25.6016 22.3745C25.6016 22.7907 25.9492 23.128 26.378 23.128Z" fill="#171D26"/>
</g>
<g id="Group_26">
<path id="Vector_20" d="M24.5073 23.6058C24.8587 23.6058 25.1435 23.3294 25.1435 22.9885C25.1435 22.6475 24.8587 22.3711 24.5073 22.3711C24.1559 22.3711 23.8711 22.6475 23.8711 22.9885C23.8711 23.3294 24.1559 23.6058 24.5073 23.6058Z" fill="#171D26"/>
</g>
<g id="Group_27">
<path id="Vector_21" d="M22.8487 21.8233C23.2775 21.8233 23.6251 21.486 23.6251 21.0699C23.6251 20.6537 23.2775 20.3164 22.8487 20.3164C22.4199 20.3164 22.0723 20.6537 22.0723 21.0699C22.0723 21.486 22.4199 21.8233 22.8487 21.8233Z" fill="#171D26"/>
</g>
<g id="Group_28">
<path id="Vector_22" d="M20.4469 20.1814C20.9343 20.1814 21.3294 19.798 21.3294 19.3251C21.3294 18.8521 20.9343 18.4688 20.4469 18.4688C19.9595 18.4688 19.5645 18.8521 19.5645 19.3251C19.5645 19.798 19.9595 20.1814 20.4469 20.1814Z" fill="#171D26"/>
</g>
<g id="Group_29">
<path id="Vector_23" d="M20.4137 13.7381C20.9011 13.7381 21.2962 13.3547 21.2962 12.8817C21.2962 12.4088 20.9011 12.0254 20.4137 12.0254C19.9263 12.0254 19.5312 12.4088 19.5312 12.8817C19.5312 13.3547 19.9263 13.7381 20.4137 13.7381Z" fill="#171D26"/>
</g>
<g id="Group_30">
<path id="Vector_24" d="M20.7999 10.7237C21.2287 10.7237 21.5763 10.3864 21.5763 9.97025C21.5763 9.55413 21.2287 9.2168 20.7999 9.2168C20.3711 9.2168 20.0234 9.55413 20.0234 9.97025C20.0234 10.3864 20.3711 10.7237 20.7999 10.7237Z" fill="#171D26"/>
</g>
<g id="Group_31">
<path id="Vector_25" d="M21.6479 8.25816C21.9993 8.25816 22.2841 7.98176 22.2841 7.6408C22.2841 7.29984 21.9993 7.02344 21.6479 7.02344C21.2966 7.02344 21.0117 7.29984 21.0117 7.6408C21.0117 7.98176 21.2966 8.25816 21.6479 8.25816Z" fill="#171D26"/>
</g>
<g id="Group_32">
<path id="Vector_26" d="M20.1671 7.09284C20.5959 7.09284 20.9435 6.75551 20.9435 6.33939C20.9435 5.92327 20.5959 5.58594 20.1671 5.58594C19.7382 5.58594 19.3906 5.92327 19.3906 6.33939C19.3906 6.75551 19.7382 7.09284 20.1671 7.09284Z" fill="#171D26"/>
</g>
<g id="Group_33">
<path id="Vector_27" d="M28.3942 22.0662C28.8816 22.0662 29.2767 21.6828 29.2767 21.2099C29.2767 20.7369 28.8816 20.3535 28.3942 20.3535C27.9068 20.3535 27.5117 20.7369 27.5117 21.2099C27.5117 21.6828 27.9068 22.0662 28.3942 22.0662Z" fill="#171D26"/>
</g>
<g id="Group_34">
<path id="Vector_28" d="M18.152 6.09745C18.6394 6.09745 19.0345 5.71405 19.0345 5.24111C19.0345 4.76816 18.6394 4.38477 18.152 4.38477C17.6646 4.38477 17.2695 4.76816 17.2695 5.24111C17.2695 5.71405 17.6646 6.09745 18.152 6.09745Z" fill="#171D26"/>
</g>
<g id="Group_35">
<path id="Vector_29" d="M18.7555 9.72831C19.2429 9.72831 19.638 9.34491 19.638 8.87197C19.638 8.39902 19.2429 8.01562 18.7555 8.01562C18.2681 8.01562 17.873 8.39902 17.873 8.87197C17.873 9.34491 18.2681 9.72831 18.7555 9.72831Z" fill="#171D26"/>
</g>
<g id="Group_36">
<path id="Vector_30" d="M17.7654 13.1907C18.351 13.1907 18.8257 12.73 18.8257 12.1618C18.8257 11.5935 18.351 11.1328 17.7654 11.1328C17.1798 11.1328 16.7051 11.5935 16.7051 12.1618C16.7051 12.73 17.1798 13.1907 17.7654 13.1907Z" fill="#171D26"/>
</g>
<g id="Group_37">
<path id="Vector_31" d="M14.5512 13.1894C15.2331 13.1894 15.7859 12.6529 15.7859 11.9912C15.7859 11.3294 15.2331 10.793 14.5512 10.793C13.8692 10.793 13.3164 11.3294 13.3164 11.9912C13.3164 12.6529 13.8692 13.1894 14.5512 13.1894Z" fill="#171D26"/>
</g>
<g id="Group_38">
<path id="Vector_32" d="M10.8091 14.0131C11.5893 14.0131 12.2217 13.3994 12.2217 12.6423C12.2217 11.8852 11.5893 11.2715 10.8091 11.2715C10.0289 11.2715 9.39648 11.8852 9.39648 12.6423C9.39648 13.3994 10.0289 14.0131 10.8091 14.0131Z" fill="#171D26"/>
</g>
<g id="Group_39">
<path id="Vector_33" d="M6.71554 15.9657C7.63173 15.9657 8.37444 15.2449 8.37444 14.3559C8.37444 13.4668 7.63173 12.7461 6.71554 12.7461C5.79936 12.7461 5.05664 13.4668 5.05664 14.3559C5.05664 15.2449 5.79936 15.9657 6.71554 15.9657Z" fill="#171D26"/>
</g>
<g id="Group_40">
<path id="Vector_34" d="M2.477 19.2549C3.56887 19.2549 4.454 18.396 4.454 17.3364C4.454 16.2769 3.56887 15.418 2.477 15.418C1.38513 15.418 0.5 16.2769 0.5 17.3364C0.5 18.396 1.38513 19.2549 2.477 19.2549Z" fill="#171D26"/>
</g>
<g id="Group_41">
<path id="Vector_35" d="M5.05539 11.9559C5.97157 11.9559 6.71429 11.2352 6.71429 10.3461C6.71429 9.45706 5.97157 8.73633 5.05539 8.73633C4.1392 8.73633 3.39648 9.45706 3.39648 10.3461C3.39648 11.2352 4.1392 11.9559 5.05539 11.9559Z" fill="#171D26"/>
</g>
<g id="Group_42">
<path id="Vector_36" d="M9.15091 10.0033C9.93109 10.0033 10.5635 9.38961 10.5635 8.63253C10.5635 7.87545 9.93109 7.26172 9.15091 7.26172C8.37074 7.26172 7.73828 7.87545 7.73828 8.63253C7.73828 9.38961 8.37074 10.0033 9.15091 10.0033Z" fill="#171D26"/>
</g>
<g id="Group_43">
<path id="Vector_37" d="M8.5513 6.37248C9.33148 6.37248 9.96393 5.75875 9.96393 5.00167C9.96393 4.24459 9.33148 3.63086 8.5513 3.63086C7.77113 3.63086 7.13867 4.24459 7.13867 5.00167C7.13867 5.75875 7.77113 6.37248 8.5513 6.37248Z" fill="#171D26"/>
</g>
<g id="Group_44">
<path id="Vector_38" d="M12.2934 5.54878C12.9753 5.54878 13.5281 5.01232 13.5281 4.35056C13.5281 3.6888 12.9753 3.15234 12.2934 3.15234C11.6114 3.15234 11.0586 3.6888 11.0586 4.35056C11.0586 5.01232 11.6114 5.54878 12.2934 5.54878Z" fill="#171D26"/>
</g>
<g id="Group_45">
<path id="Vector_39" d="M15.5056 5.55202C16.0912 5.55202 16.566 5.09135 16.566 4.52308C16.566 3.95481 16.0912 3.49414 15.5056 3.49414C14.92 3.49414 14.4453 3.95481 14.4453 4.52308C14.4453 5.09135 14.92 5.55202 15.5056 5.55202Z" fill="#171D26"/>
</g>
<g id="Group_46">
<path id="Vector_40" d="M16.1033 9.18483C16.6889 9.18483 17.1636 8.72416 17.1636 8.15589C17.1636 7.58763 16.6889 7.12695 16.1033 7.12695C15.5177 7.12695 15.043 7.58763 15.043 8.15589C15.043 8.72416 15.5177 9.18483 16.1033 9.18483Z" fill="#171D26"/>
</g>
<g id="Group_47">
<path id="Vector_41" d="M12.893 9.21479C13.5749 9.21479 14.1277 8.67833 14.1277 8.01657C14.1277 7.35482 13.5749 6.81836 12.893 6.81836C12.211 6.81836 11.6582 7.35482 11.6582 8.01657C11.6582 8.67833 12.211 9.21479 12.893 9.21479Z" fill="#171D26"/>
</g>
<g id="Group_48">
<path id="Vector_42" d="M9.39596 18.3324C9.74733 18.3324 10.0322 18.056 10.0322 17.715C10.0322 17.3741 9.74733 17.0977 9.39596 17.0977C9.0446 17.0977 8.75977 17.3741 8.75977 17.715C8.75977 18.056 9.0446 18.3324 9.39596 18.3324Z" fill="#171D26"/>
</g>
<g id="Group_49">
<path id="Vector_43" d="M11.9385 18.0206C12.3674 18.0206 12.715 17.6832 12.715 17.2671C12.715 16.851 12.3674 16.5137 11.9385 16.5137C11.5097 16.5137 11.1621 16.851 11.1621 17.2671C11.1621 17.6832 11.5097 18.0206 11.9385 18.0206Z" fill="#171D26"/>
</g>
<g id="Group_50">
<path id="Vector_44" d="M14.7282 16.9939C15.2155 16.9939 15.6106 16.6105 15.6106 16.1376C15.6106 15.6646 15.2155 15.2812 14.7282 15.2812C14.2408 15.2812 13.8457 15.6646 13.8457 16.1376C13.8457 16.6105 14.2408 16.9939 14.7282 16.9939Z" fill="#171D26"/>
</g>
<g id="Group_51">
<path id="Vector_45" d="M15.4002 19.7356C15.9858 19.7356 16.4605 19.2749 16.4605 18.7067C16.4605 18.1384 15.9858 17.6777 15.4002 17.6777C14.8146 17.6777 14.3398 18.1384 14.3398 18.7067C14.3398 19.2749 14.8146 19.7356 15.4002 19.7356Z" fill="#171D26"/>
</g>
<g id="Group_52">
<path id="Vector_46" d="M12.0094 20.3865C12.4968 20.3865 12.8919 20.0031 12.8919 19.5302C12.8919 19.0572 12.4968 18.6738 12.0094 18.6738C11.522 18.6738 11.127 19.0572 11.127 19.5302C11.127 20.0031 11.522 20.3865 12.0094 20.3865Z" fill="#171D26"/>
</g>
<g id="Group_53">
<path id="Vector_47" d="M9.01081 20.3506C9.43962 20.3506 9.78724 20.0133 9.78724 19.5972C9.78724 19.1811 9.43962 18.8438 9.01081 18.8438C8.582 18.8438 8.23438 19.1811 8.23438 19.5972C8.23438 20.0133 8.582 20.3506 9.01081 20.3506Z" fill="#171D26"/>
</g>
<g id="Group_54">
<path id="Vector_48" d="M9.04458 22.7166C9.53195 22.7166 9.92704 22.3332 9.92704 21.8603C9.92704 21.3873 9.53195 21.0039 9.04458 21.0039C8.5572 21.0039 8.16211 21.3873 8.16211 21.8603C8.16211 22.3332 8.5572 22.7166 9.04458 22.7166Z" fill="#171D26"/>
</g>
<g id="Group_55">
<path id="Vector_49" d="M12.6463 23.1614C13.2319 23.1614 13.7066 22.7007 13.7066 22.1325C13.7066 21.5642 13.2319 21.1035 12.6463 21.1035C12.0607 21.1035 11.5859 21.5642 11.5859 22.1325C11.5859 22.7007 12.0607 23.1614 12.6463 23.1614Z" fill="#171D26"/>
</g>
<g id="Group_56">
<path id="Vector_50" d="M16.8461 22.7128C17.528 22.7128 18.0809 22.1764 18.0809 21.5146C18.0809 20.8529 17.528 20.3164 16.8461 20.3164C16.1642 20.3164 15.6113 20.8529 15.6113 21.5146C15.6113 22.1764 16.1642 22.7128 16.8461 22.7128Z" fill="#171D26"/>
</g>
<g id="Group_57">
<path id="Vector_51" d="M19.3189 25.6967C20.0991 25.6967 20.7315 25.083 20.7315 24.3259C20.7315 23.5688 20.0991 22.9551 19.3189 22.9551C18.5387 22.9551 17.9062 23.5688 17.9062 24.3259C17.9062 25.083 18.5387 25.6967 19.3189 25.6967Z" fill="#171D26"/>
</g>
<g id="Group_58">
<path id="Vector_52" d="M14.1273 26.1054C14.8093 26.1054 15.3621 25.569 15.3621 24.9072C15.3621 24.2454 14.8093 23.709 14.1273 23.709C13.4454 23.709 12.8926 24.2454 12.8926 24.9072C12.8926 25.569 13.4454 26.1054 14.1273 26.1054Z" fill="#171D26"/>
</g>
<g id="Group_59">
<path id="Vector_53" d="M11.1996 28.4355C11.8816 28.4355 12.4344 27.899 12.4344 27.2373C12.4344 26.5755 11.8816 26.0391 11.1996 26.0391C10.5177 26.0391 9.96484 26.5755 9.96484 27.2373C9.96484 27.899 10.5177 28.4355 11.1996 28.4355Z" fill="#171D26"/>
</g>
<g id="Group_60">
<path id="Vector_54" d="M13.6353 31.4526C14.4155 31.4526 15.0479 30.8388 15.0479 30.0817C15.0479 29.3247 14.4155 28.7109 13.6353 28.7109C12.8551 28.7109 12.2227 29.3247 12.2227 30.0817C12.2227 30.8388 12.8551 31.4526 13.6353 31.4526Z" fill="#171D26"/>
</g>
<g id="Group_61">
<path id="Vector_55" d="M20.1296 32.0008C21.0458 32.0008 21.7885 31.2801 21.7885 30.391C21.7885 29.502 21.0458 28.7812 20.1296 28.7812C19.2134 28.7812 18.4707 29.502 18.4707 30.391C18.4707 31.2801 19.2134 32.0008 20.1296 32.0008Z" fill="#171D26"/>
</g>
<g id="Group_62">
<path id="Vector_56" d="M16.565 29.1225C17.3452 29.1225 17.9776 28.5087 17.9776 27.7517C17.9776 26.9946 17.3452 26.3809 16.565 26.3809C15.7848 26.3809 15.1523 26.9946 15.1523 27.7517C15.1523 28.5087 15.7848 29.1225 16.565 29.1225Z" fill="#171D26"/>
</g>
<g id="Group_63">
<path id="Vector_57" d="M22.8484 28.575C23.7645 28.575 24.5073 27.8543 24.5073 26.9653C24.5073 26.0762 23.7645 25.3555 22.8484 25.3555C21.9322 25.3555 21.1895 26.0762 21.1895 26.9653C21.1895 27.8543 21.9322 28.575 22.8484 28.575Z" fill="#171D26"/>
</g>
<g id="Group_64">
<path id="Vector_58" d="M9.71463 25.4915C10.3002 25.4915 10.775 25.0308 10.775 24.4625C10.775 23.8943 10.3002 23.4336 9.71463 23.4336C9.12902 23.4336 8.6543 23.8943 8.6543 24.4625C8.6543 25.0308 9.12902 25.4915 9.71463 25.4915Z" fill="#171D26"/>
</g>
</g>
</g>
</svg>
