<svg xmlns="http://www.w3.org/2000/svg" width="137" height="36" fill="none" viewBox="0 0 137 36">
  <g clip-path="url(#a)">
    <path fill="#171D26" fill-rule="evenodd" d="M76.175 6.28c-6.361 0-11.77 5.516-11.77 12.028 0 6.553 5.445 12.065 11.77 12.027 6.36 0 11.73-5.474 11.73-12.027 0-6.553-5.332-12.027-11.73-12.027Zm0 2.469c4.951 0 9.102 4.395 9.102 9.559 0 5.205-4.15 9.596-9.102 9.596s-9.14-4.39-9.14-9.596c0-5.164 4.188-9.56 9.14-9.56Z" clip-rule="evenodd"/>
    <path fill="#171D26" d="M53.32 6.706h2.627v23.241H53.32V6.707Zm48.067 2.506h-7.73V6.706h18.053v2.506h-7.733v20.735h-2.627l.037-20.735Zm15.386 20.735 8.722-20.003 8.649 20.003H137l-9.56-21.93a2.123 2.123 0 0 0-1.982-1.31c-.837 0-1.638.5-1.981 1.31l-9.56 21.93h2.856ZM26.928 4.317c1.178 0 2.132-.967 2.132-2.159C29.06.966 28.106 0 26.928 0c-1.178 0-2.133.966-2.133 2.158s.955 2.159 2.133 2.159Zm2.398 30.488c1.178 0 2.133-.966 2.133-2.158s-.955-2.159-2.133-2.159-2.133.967-2.133 2.159c0 1.192.955 2.158 2.133 2.158ZM27.537 9.712a1.8 1.8 0 0 0 1.789-1.81 1.8 1.8 0 0 0-1.79-1.812 1.8 1.8 0 0 0-1.789 1.811 1.8 1.8 0 0 0 1.79 1.811Zm4.759.695a1.8 1.8 0 0 0 1.79-1.811 1.8 1.8 0 0 0-1.79-1.811 1.8 1.8 0 0 0-1.79 1.81 1.8 1.8 0 0 0 1.79 1.812Zm-5.368 3.894c.841 0 1.524-.69 1.524-1.542 0-.851-.683-1.542-1.524-1.542-.842 0-1.524.69-1.524 1.542 0 .852.682 1.542 1.524 1.542Zm4.76.654c.841 0 1.523-.69 1.523-1.542 0-.852-.682-1.542-1.523-1.542-.842 0-1.524.69-1.524 1.542 0 .851.682 1.542 1.523 1.542Zm3.807 1.505c.842 0 1.524-.69 1.524-1.543 0-.851-.682-1.542-1.524-1.542-.841 0-1.524.69-1.524 1.543 0 .851.683 1.542 1.524 1.542Zm-5.217 2.195a1.34 1.34 0 0 0 1.332-1.348 1.34 1.34 0 0 0-1.332-1.348 1.34 1.34 0 0 0-1.332 1.348 1.34 1.34 0 0 0 1.332 1.348Zm-4.76-.657a1.34 1.34 0 0 0 1.332-1.348 1.34 1.34 0 0 0-1.332-1.348 1.34 1.34 0 0 0-1.332 1.348 1.34 1.34 0 0 0 1.332 1.348Zm8.608 2.158a1.34 1.34 0 0 0 1.332-1.348 1.34 1.34 0 0 0-1.332-1.348 1.34 1.34 0 0 0-1.332 1.348 1.34 1.34 0 0 0 1.332 1.348Zm-5.752 1.314a1.15 1.15 0 0 0 1.144-1.157 1.15 1.15 0 0 0-1.144-1.157 1.15 1.15 0 0 0-1.144 1.157c0 .64.512 1.158 1.144 1.158Zm3.848 1.465a1.15 1.15 0 0 0 1.144-1.158 1.15 1.15 0 0 0-1.144-1.158 1.15 1.15 0 0 0-1.143 1.158c0 .64.512 1.158 1.143 1.158Zm-8.571-2.159a1.15 1.15 0 0 0 1.144-1.157 1.15 1.15 0 0 0-1.144-1.158 1.15 1.15 0 0 0-1.144 1.158 1.15 1.15 0 0 0 1.144 1.157Zm2.627 2.581a.958.958 0 0 0 .952-.964.958.958 0 0 0-.952-.963.958.958 0 0 0-.952.963c0 .532.427.963.952.963Zm1.639 2.662c.462 0 .837-.38.837-.848a.843.843 0 0 0-.837-.847.843.843 0 0 0-.838.847c0 .468.375.848.838.848Zm-2.019.538a.69.69 0 0 0 .687-.695.69.69 0 0 0-.687-.694.69.69 0 0 0-.686.694.69.69 0 0 0 .686.695Zm-1.789-2.006c.462 0 .837-.38.837-.847a.843.843 0 0 0-.837-.848.843.843 0 0 0-.838.848c0 .468.375.847.838.847Zm-2.59-1.848a.958.958 0 0 0 .952-.963.958.958 0 0 0-.952-.964.958.958 0 0 0-.952.964c0 .532.426.963.952.963Zm-.037-7.248a.958.958 0 0 0 .952-.963.958.958 0 0 0-.952-.964.958.958 0 0 0-.952.964c0 .532.426.963.952.963Zm.417-3.39c.462 0 .837-.38.837-.848a.843.843 0 0 0-.837-.848.843.843 0 0 0-.838.848c0 .468.375.848.838.848Zm.915-2.775a.69.69 0 0 0 .686-.694.69.69 0 0 0-.686-.695.69.69 0 0 0-.687.695.69.69 0 0 0 .687.694Zm-1.598-1.31c.463 0 .838-.38.838-.848a.843.843 0 0 0-.838-.848.843.843 0 0 0-.838.848c0 .468.375.848.838.848Zm8.874 16.844a.958.958 0 0 0 .952-.963.958.958 0 0 0-.952-.964.958.958 0 0 0-.952.964c0 .532.426.963.952.963ZM19.043 6.86a.958.958 0 0 0 .952-.964.958.958 0 0 0-.952-.963.958.958 0 0 0-.952.963c0 .532.426.963.952.963Zm.649 4.084a.958.958 0 0 0 .952-.963.958.958 0 0 0-.952-.963.958.958 0 0 0-.952.963c0 .532.426.963.952.963Zm-1.066 3.896a1.15 1.15 0 0 0 1.144-1.158 1.15 1.15 0 0 0-1.144-1.158 1.15 1.15 0 0 0-1.144 1.158 1.15 1.15 0 0 0 1.144 1.157Zm-3.469 0a1.34 1.34 0 0 0 1.332-1.349 1.34 1.34 0 0 0-1.332-1.348 1.34 1.34 0 0 0-1.332 1.348 1.34 1.34 0 0 0 1.332 1.348Zm-4.037.925c.843 0 1.525-.69 1.525-1.542 0-.852-.682-1.542-1.524-1.542s-1.524.69-1.524 1.542c0 .852.682 1.542 1.524 1.542ZM6.704 17.96a1.8 1.8 0 0 0 1.79-1.81 1.8 1.8 0 0 0-1.79-1.811 1.8 1.8 0 0 0-1.79 1.81 1.8 1.8 0 0 0 1.79 1.812Zm-4.571 3.701c1.178 0 2.132-.966 2.132-2.158s-.954-2.158-2.132-2.158C.955 17.345 0 18.31 0 19.503s.955 2.158 2.133 2.158Zm2.782-8.211a1.8 1.8 0 0 0 1.79-1.811 1.8 1.8 0 0 0-1.79-1.811 1.8 1.8 0 0 0-1.79 1.811 1.8 1.8 0 0 0 1.79 1.811Zm4.416-2.196c.842 0 1.524-.69 1.524-1.542 0-.851-.682-1.542-1.524-1.542-.841 0-1.524.69-1.524 1.542 0 .852.683 1.542 1.524 1.542ZM8.686 7.17c.841 0 1.524-.691 1.524-1.543 0-.851-.683-1.542-1.524-1.542-.842 0-1.524.69-1.524 1.542 0 .852.682 1.542 1.524 1.542Zm4.036-.927a1.34 1.34 0 0 0 1.332-1.348 1.34 1.34 0 0 0-1.332-1.348 1.34 1.34 0 0 0-1.332 1.348 1.34 1.34 0 0 0 1.332 1.348Zm3.465.004A1.15 1.15 0 0 0 17.33 5.09a1.15 1.15 0 0 0-1.144-1.158 1.15 1.15 0 0 0-1.144 1.158 1.15 1.15 0 0 0 1.144 1.157Zm.646 4.085a1.15 1.15 0 0 0 1.143-1.157 1.15 1.15 0 0 0-1.143-1.158 1.15 1.15 0 0 0-1.144 1.158 1.15 1.15 0 0 0 1.144 1.157Zm-3.465.034A1.34 1.34 0 0 0 14.7 9.018a1.34 1.34 0 0 0-1.332-1.348 1.34 1.34 0 0 0-1.332 1.348 1.34 1.34 0 0 0 1.332 1.348ZM9.597 20.623a.69.69 0 0 0 .686-.694.69.69 0 0 0-.686-.695.69.69 0 0 0-.686.695.69.69 0 0 0 .686.694Zm2.741-.351c.463 0 .838-.38.838-.848a.843.843 0 0 0-.838-.847.843.843 0 0 0-.837.847c0 .469.375.848.838.848Zm3.012-1.154a.958.958 0 0 0 .951-.963.958.958 0 0 0-.952-.963.958.958 0 0 0-.952.963c0 .532.427.963.952.963Zm.723 3.085a1.15 1.15 0 0 0 1.143-1.158 1.15 1.15 0 0 0-1.143-1.157 1.15 1.15 0 0 0-1.144 1.157c0 .64.512 1.158 1.144 1.158Zm-3.657.731a.958.958 0 0 0 .952-.963.958.958 0 0 0-.952-.963.958.958 0 0 0-.952.963c0 .532.426.963.952.963Zm-3.236-.041a.842.842 0 0 0 .838-.847.843.843 0 0 0-.838-.848.843.843 0 0 0-.838.848c0 .468.375.848.838.848Zm.037 2.663a.958.958 0 0 0 .952-.963.958.958 0 0 0-.952-.964.958.958 0 0 0-.952.963c0 .533.426.964.952.964Zm3.885.5a1.15 1.15 0 0 0 1.144-1.157 1.15 1.15 0 0 0-1.144-1.158 1.15 1.15 0 0 0-1.144 1.158 1.15 1.15 0 0 0 1.144 1.157Zm4.531-.504a1.34 1.34 0 0 0 1.332-1.348 1.34 1.34 0 0 0-1.332-1.348 1.34 1.34 0 0 0-1.332 1.348 1.34 1.34 0 0 0 1.332 1.348Zm2.667 3.357c.842 0 1.525-.69 1.525-1.542 0-.852-.683-1.542-1.524-1.542-.842 0-1.524.69-1.524 1.542 0 .852.682 1.542 1.524 1.542Zm-5.6.459a1.34 1.34 0 0 0 1.332-1.348 1.34 1.34 0 0 0-1.332-1.348 1.34 1.34 0 0 0-1.332 1.348 1.34 1.34 0 0 0 1.332 1.348Zm-3.159 2.622a1.34 1.34 0 0 0 1.332-1.348 1.34 1.34 0 0 0-1.332-1.348 1.34 1.34 0 0 0-1.332 1.348 1.34 1.34 0 0 0 1.332 1.348Zm2.628 3.394c.841 0 1.524-.69 1.524-1.542 0-.852-.683-1.542-1.524-1.542-.842 0-1.524.69-1.524 1.542 0 .851.682 1.542 1.524 1.542Zm7.006.616a1.8 1.8 0 0 0 1.79-1.811 1.8 1.8 0 0 0-1.79-1.811 1.8 1.8 0 0 0-1.79 1.811A1.8 1.8 0 0 0 21.176 36Zm-3.845-3.237c.842 0 1.525-.69 1.525-1.543 0-.851-.683-1.542-1.524-1.542-.842 0-1.524.69-1.524 1.542 0 .852.682 1.543 1.524 1.543Zm6.779-.616a1.8 1.8 0 0 0 1.79-1.812 1.8 1.8 0 0 0-1.79-1.81 1.8 1.8 0 0 0-1.79 1.81 1.8 1.8 0 0 0 1.79 1.812ZM9.94 28.677a1.15 1.15 0 0 0 1.144-1.157 1.15 1.15 0 0 0-1.144-1.158 1.15 1.15 0 0 0-1.144 1.158c0 .64.512 1.157 1.144 1.157Z"/>
  </g>
  <defs>
    <clipPath id="a">
      <path fill="#fff" d="M0 0h137v36H0z"/>
    </clipPath>
  </defs>
</svg>
