<svg xmlns="http://www.w3.org/2000/svg" width="24" height="24" fill="none" viewBox="0 0 24 24">
  <path fill="#171D26" d="M12 2a1 1 0 0 1 1 1v2a1 1 0 1 1-2 0V3a1 1 0 0 1 1-1Z"/>
  <path fill="#171D26" fill-rule="evenodd" d="M7 12a5 5 0 1 1 10 0 5 5 0 0 1-10 0Zm5-3a3 3 0 1 0 0 6 3 3 0 0 0 0-6Z" clip-rule="evenodd"/>
  <path fill="#171D26" d="M13 19a1 1 0 1 0-2 0v2a1 1 0 1 0 2 0v-2Zm9-7a1 1 0 0 1-1 1h-2a1 1 0 1 1 0-2h2a1 1 0 0 1 1 1ZM5 13a1 1 0 1 0 0-2H3a1 1 0 1 0 0 2h2Zm14.07-8.071a1 1 0 0 1 0 1.414L17.915 7.5A1 1 0 1 1 16.5 6.086l1.157-1.157a1 1 0 0 1 1.414 0ZM7.5 17.914a1 1 0 1 0-1.414-1.415l-1.157 1.158a1 1 0 1 0 1.414 1.414L7.5 17.914Zm11.57 1.157a1 1 0 0 1-1.413 0L16.5 17.914a1 1 0 0 1 1.414-1.414l1.157 1.157a1 1 0 0 1 0 1.414ZM6.086 7.5A1 1 0 1 0 7.5 6.087L6.343 4.93a1 1 0 1 0-1.414 1.414l1.157 1.158Z"/>
</svg>
