<svg xmlns="http://www.w3.org/2000/svg" width="24" height="24" fill="none" viewBox="0 0 24 24">
  <path fill="#171D26" d="M14.828 16.243 12 19.07c-.978.978-2.157 1.467-3.536 1.467-1.378 0-2.557-.489-3.535-1.467-.978-.978-1.467-2.157-1.467-3.535 0-1.38.489-2.558 1.467-3.536l2.828-2.828 1.414 1.414-2.828 2.828a2.893 2.893 0 0 0-.884 2.122c0 .825.295 1.532.884 2.121.59.59 1.296.884 2.121.884s1.532-.295 2.122-.884l2.828-2.829 1.414 1.415Zm-4.95-.707L8.465 14.12l5.657-5.656 1.414 1.414-5.656 5.657Zm6.365-.707-1.415-1.415 2.829-2.828c.589-.59.884-1.296.884-2.121s-.295-1.532-.884-2.122a2.893 2.893 0 0 0-2.122-.884 2.89 2.89 0 0 0-2.12.884l-2.83 2.829-1.414-1.415L12 4.93c.978-.978 2.157-1.467 3.535-1.467 1.38 0 2.558.489 3.536 1.467.978.978 1.467 2.157 1.467 3.536 0 1.378-.489 2.557-1.467 3.535l-2.828 2.829Z"/>
</svg>
