<svg xmlns="http://www.w3.org/2000/svg" width="24" height="24" fill="none" viewBox="0 0 24 24">
  <path fill="#171D26" fill-rule="evenodd" d="M3 7a2 2 0 0 1 2-2h2a2 2 0 0 1 2 2v2a2 2 0 0 1-2 2H5a2 2 0 0 1-2-2V7Zm4 0H5v2h2V7Zm-4 8a2 2 0 0 1 2-2h2a2 2 0 0 1 2 2v2a2 2 0 0 1-2 2H5a2 2 0 0 1-2-2v-2Zm4 0H5v2h2v-2Z" clip-rule="evenodd"/>
  <path fill="#171D26" d="M12 11a1 1 0 1 0 0 2h7a1 1 0 1 0 0-2h-7Zm-1-5a1 1 0 0 1 1-1h7a1 1 0 1 1 0 2h-7a1 1 0 0 1-1-1Zm1 11a1 1 0 1 0 0 2h7a1 1 0 1 0 0-2h-7Z"/>
</svg>
