<svg viewBox="0 0 24 24" width="24" height="24"  fill="none" xmlns="http://www.w3.org/2000/svg">
<path d="M9 5C8.44772 5 8 5.44772 8 6C8 6.55228 8.44771 7 9 7H19C19.5523 7 20 6.55228 20 6C20 5.44772 19.5523 5 19 5H9Z" fill="#171D26"/>
<path d="M9 11C8.44772 11 8 11.4477 8 12C8 12.5523 8.44771 13 9 13H19C19.5523 13 20 12.5523 20 12C20 11.4477 19.5523 11 19 11H9Z" fill="#171D26"/>
<path d="M8 18C8 17.4477 8.44772 17 9 17H19C19.5523 17 20 17.4477 20 18C20 18.5523 19.5523 19 19 19H9C8.44771 19 8 18.5523 8 18Z" fill="#171D26"/>
<path d="M5 11C4.44772 11 4 11.4477 4 12C4 12.5523 4.44772 13 5 13C5.55228 13 6 12.5523 6 12C6 11.4477 5.55228 11 5 11Z" fill="#171D26"/>
<path d="M4 6C4 5.44772 4.44772 5 5 5C5.55228 5 6 5.44772 6 6C6 6.55228 5.55228 7 5 7C4.44772 7 4 6.55228 4 6Z" fill="#171D26"/>
<path d="M5 17C4.44772 17 4 17.4477 4 18C4 18.5523 4.44772 19 5 19C5.55228 19 6 18.5523 6 18C6 17.4477 5.55228 17 5 17Z" fill="#171D26"/>
</svg>