<svg viewBox="0 0 24 24" width="24" height="24"  fill="none" xmlns="http://www.w3.org/2000/svg">
<path fill-rule="evenodd" clip-rule="evenodd" d="M3 7C3 5.89543 3.89543 5 5 5H7C8.10457 5 9 5.89543 9 7V9C9 10.1046 8.10457 11 7 11H5C3.89543 11 3 10.1046 3 9V7ZM7 7H5V9H7V7Z" fill="#171D26"/>
<path fill-rule="evenodd" clip-rule="evenodd" d="M3 15C3 13.8954 3.89543 13 5 13H7C8.10457 13 9 13.8954 9 15V17C9 18.1046 8.10457 19 7 19H5C3.89543 19 3 18.1046 3 17V15ZM7 15H5V17H7V15Z" fill="#171D26"/>
<path d="M12 11C11.4477 11 11 11.4477 11 12C11 12.5523 11.4477 13 12 13H19C19.5523 13 20 12.5523 20 12C20 11.4477 19.5523 11 19 11H12Z" fill="#171D26"/>
<path d="M11 6C11 5.44772 11.4477 5 12 5H19C19.5523 5 20 5.44772 20 6C20 6.55228 19.5523 7 19 7H12C11.4477 7 11 6.55228 11 6Z" fill="#171D26"/>
<path d="M12 17C11.4477 17 11 17.4477 11 18C11 18.5523 11.4477 19 12 19H19C19.5523 19 20 18.5523 20 18C20 17.4477 19.5523 17 19 17H12Z" fill="#171D26"/>
</svg>