<svg xmlns="http://www.w3.org/2000/svg" width="24" height="24" fill="none" viewBox="0 0 24 24">
  <path fill="#171D26" d="M17.72 3.139c-.266-.297-.72-.087-.72.333V6h-1a6 6 0 0 0-6 6 4 4 0 0 1-4 4H4a1 1 0 0 0 0 2h2a6 6 0 0 0 6-6 4 4 0 0 1 4-4h1v2.528c0 .42.454.63.72.333l3.157-3.528a.511.511 0 0 0 0-.666L17.72 3.139Z"/>
  <path fill="#171D26" d="M17.72 13.139c-.266-.297-.72-.087-.72.333V16h-1a3.992 3.992 0 0 1-3.139-1.52 3.504 3.504 0 0 1-1.14 1.726A5.982 5.982 0 0 0 15.999 18H17v2.528c0 .42.454.63.72.333l3.157-3.528a.511.511 0 0 0 0-.666l-3.157-3.528Zm-7.44-5.344A5.981 5.981 0 0 0 6 6H4a1 1 0 1 0 0 2h2c1.273 0 2.407.594 3.139 1.52.2-.685.603-1.284 1.14-1.725Z"/>
</svg>
