<svg viewBox="0 0 24 24" width="24" height="24"  fill="none" xmlns="http://www.w3.org/2000/svg">
<path fill-rule="evenodd" clip-rule="evenodd" d="M14.4218 13.3754C15.9593 12.5225 17 10.8828 17 9C17 6.23858 14.7614 4 12 4C9.23858 4 7 6.23858 7 9C7 10.8828 8.04067 12.5225 9.57817 13.3754C8.36897 13.7595 7.25691 14.4294 6.34315 15.3431C4.84286 16.8434 4 18.8783 4 21L6 21C6 19.4087 6.63214 17.8826 7.75736 16.7574C8.88258 15.6321 10.4087 15 12 15C13.5913 15 15.1174 15.6321 16.2426 16.7574C17.3679 17.8826 18 19.4087 18 21H20C20 18.8783 19.1571 16.8434 17.6569 15.3431C16.7431 14.4294 15.631 13.7595 14.4218 13.3754ZM15 9C15 10.6569 13.6569 12 12 12C10.3431 12 9 10.6569 9 9C9 7.34315 10.3431 6 12 6C13.6569 6 15 7.34315 15 9Z" fill="#171D26"/>
</svg>