<svg viewBox="0 0 24 24" width="24" height="24"  fill="none" xmlns="http://www.w3.org/2000/svg">
<path d="M11 9C11 10.1046 10.1046 11 9 11C7.89543 11 7 10.1046 7 9C7 7.89543 7.89543 7 9 7C10.1046 7 11 7.89543 11 9Z" fill="#171D26"/>
<path d="M15 11C16.1046 11 17 10.1046 17 9C17 7.89543 16.1046 7 15 7C13.8954 7 13 7.89543 13 9C13 10.1046 13.8954 11 15 11Z" fill="#171D26"/>
<path fill-rule="evenodd" clip-rule="evenodd" d="M2 8C2 4.68629 4.68629 2 8 2H16C19.3137 2 22 4.68629 22 8V16C22 19.3137 19.3137 22 16 22H8C4.68629 22 2 19.3137 2 16V8ZM4 8C4 5.79086 5.79086 4 8 4H16C18.2091 4 20 5.79086 20 8V11.871C14.9239 14.2091 9.07613 14.2091 4 11.871V8ZM4 14.0513V16C4 18.2091 5.79086 20 8 20H16C18.2091 20 20 18.2091 20 16V14.0513C14.8746 16.149 9.12537 16.149 4 14.0513Z" fill="#171D26"/>
</svg>