<svg viewBox="0 0 24 24" width="24" height="24"  fill="none" xmlns="http://www.w3.org/2000/svg">
<path d="M11.2929 4.29289C11.6346 3.95118 12.1621 3.90847 12.5502 4.16475C12.6057 4.20136 12.6586 4.24437 12.7074 4.29319L16.7071 8.29289C17.0976 8.68342 17.0976 9.31658 16.7071 9.70711C16.3166 10.0976 15.6834 10.0976 15.2929 9.70711L13 7.41421V17C13 17.5523 12.5523 18 12 18C11.4477 18 11 17.5523 11 17V7.41421L8.70711 9.70711C8.31658 10.0976 7.68342 10.0976 7.29289 9.70711C6.90237 9.31658 6.90237 8.68342 7.29289 8.29289L11.2929 4.29289Z" fill="#171D26"/>
</svg>