<svg viewBox="0 0 24 24" width="24" height="24"  fill="none" xmlns="http://www.w3.org/2000/svg">
<path d="M11.2929 4.29289C11.6346 3.95118 12.1621 3.90847 12.5502 4.16475C12.6057 4.20136 12.6586 4.24437 12.7074 4.29319L16.7071 8.29289C17.0976 8.68342 17.0976 9.31658 16.7071 9.70711C16.3166 10.0976 15.6834 10.0976 15.2929 9.70711L12 6.41421L8.70711 9.70711C8.31658 10.0976 7.68342 10.0976 7.29289 9.70711C6.90237 9.31658 6.90237 8.68342 7.29289 8.29289L11.2929 4.29289Z" fill="#171D26"/>
<path d="M11.2929 19.7071C11.6346 20.0488 12.1621 20.0915 12.5502 19.8352C12.6057 19.7986 12.6586 19.7556 12.7074 19.7068L16.7071 15.7071C17.0976 15.3166 17.0976 14.6834 16.7071 14.2929C16.3166 13.9024 15.6834 13.9024 15.2929 14.2929L12 17.5858L8.70711 14.2929C8.31658 13.9024 7.68342 13.9024 7.29289 14.2929C6.90237 14.6834 6.90237 15.3166 7.29289 15.7071L11.2929 19.7071Z" fill="#171D26"/>
</svg>