<svg viewBox="0 0 24 24" width="24" height="24"  fill="none" xmlns="http://www.w3.org/2000/svg">
<path d="M12 6C11.4477 6 11 6.44772 11 7V16.5858L8.70711 14.2929C8.31658 13.9024 7.68342 13.9024 7.29289 14.2929C6.90237 14.6834 6.90237 15.3166 7.29289 15.7071L11.2929 19.7071C11.6346 20.0488 12.1621 20.0915 12.5502 19.8352C12.6057 19.7986 12.6586 19.7556 12.7074 19.7068L16.7071 15.7071C17.0976 15.3166 17.0976 14.6834 16.7071 14.2929C16.3166 13.9024 15.6834 13.9024 15.2929 14.2929L13 16.5858V7C13 6.44772 12.5523 6 12 6Z" fill="#171D26"/>
</svg>