<svg viewBox="0 0 24 24" width="24" height="24"  fill="none" xmlns="http://www.w3.org/2000/svg">
<path fill-rule="evenodd" clip-rule="evenodd" d="M12.001 6.80327C12.5658 6.47733 13.183 6.24388 13.8295 6.11529C14.9933 5.88378 16.1997 6.0026 17.2961 6.45673C18.3925 6.91085 19.3295 7.67989 19.9888 8.66658C20.6481 9.65328 21 10.8133 21 12C21 13.1867 20.6481 14.3467 19.9888 15.3334C19.3295 16.3201 18.3925 17.0892 17.2961 17.5433C16.1997 17.9974 14.9933 18.1162 13.8295 17.8847C13.183 17.7561 12.5658 17.5227 12.001 17.1967C11.1183 17.7076 10.0933 18 9 18C5.68629 18 3 15.3137 3 12C3 8.68629 5.68629 6 9 6C10.0933 6 11.1183 6.29241 12.001 6.80327ZM14.2196 8.07686C14.9956 7.92252 15.7998 8.00173 16.5307 8.30448C17.2616 8.60723 17.8864 9.11993 18.3259 9.77772C18.7654 10.4355 19 11.2089 19 12C19 12.7911 18.7654 13.5645 18.3259 14.2223C17.8864 14.8801 17.2616 15.3928 16.5307 15.6955C15.7998 15.9983 14.9956 16.0775 14.2196 15.9231C14.0312 15.8857 13.8465 15.8348 13.6669 15.7713C14.5006 14.7409 15 13.4288 15 12C15 10.5713 14.5006 9.25914 13.6669 8.22869C13.8465 8.16518 14.0312 8.11434 14.2196 8.07686ZM13 12C13 14.2091 11.2091 16 9 16C6.79086 16 5 14.2091 5 12C5 9.79086 6.79086 8 9 8C11.2091 8 13 9.79086 13 12Z" fill="#171D26"/>
</svg>