<svg xmlns="http://www.w3.org/2000/svg" width="24" height="24" fill="none" viewBox="0 0 24 24">
  <path fill="#171D26" d="m19.607 13.95-1.464 1.455-1.747-1.716a5 5 0 1 0-6.39-6.53l.006.011-.011.005a4.933 4.933 0 0 0-.063.168L8.165 5.601l1.542-1.55a7 7 0 1 1 9.9 9.899Z"/>
  <path fill="#171D26" fill-rule="evenodd" d="M3.663 10.127 4.675 9.11l2.185 2.15a5 5 0 0 0 5.624 5.526l2.146 2.109-1.14 1.132a7 7 0 0 1-9.828-9.899ZM4.83 11.9a5 5 0 0 0 6.928 6.928A7 7 0 0 1 4.83 11.9Z" clip-rule="evenodd"/>
  <path fill="#171D26" d="M19.086 21.414 2 4.414 3.414 3 20.5 20l-1.414 1.414Z"/>
</svg>
