<svg viewBox="0 0 24 24" width="24" height="24"  fill="none" xmlns="http://www.w3.org/2000/svg">
<path fill-rule="evenodd" clip-rule="evenodd" d="M7.70763 6.29342C7.89505 5.90178 8 5.46315 8 5C8 3.34315 6.65685 2 5 2C3.34315 2 2 3.34315 2 5C2 6.65685 3.34315 8 5 8C5.46315 8 5.90178 7.89505 6.29342 7.70763L7.8284 9.24261C7.30488 10.033 7 10.9809 7 12C7 14.7614 9.23858 17 12 17C13.0191 17 13.967 16.6951 14.7574 16.1716L16.2924 17.7066C16.105 18.0982 16 18.5369 16 19C16 20.6569 17.3431 22 19 22C20.6569 22 22 20.6569 22 19C22 17.3431 20.6569 16 19 16C18.5369 16 18.0982 16.105 17.7066 16.2924L16.1716 14.7574C16.6951 13.967 17 13.0191 17 12C17 9.23858 14.7614 7 12 7C10.9809 7 10.033 7.30488 9.24261 7.8284L7.70763 6.29342ZM4 5C4 4.44772 4.44772 4 5 4C5.55228 4 6 4.44772 6 5C6 5.55228 5.55228 6 5 6C4.44772 6 4 5.55228 4 5ZM12 15C13.6569 15 15 13.6569 15 12C15 10.3431 13.6569 9 12 9C10.3431 9 9 10.3431 9 12C9 13.6569 10.3431 15 12 15ZM19 18C18.4477 18 18 18.4477 18 19C18 19.5523 18.4477 20 19 20C19.5523 20 20 19.5523 20 19C20 18.4477 19.5523 18 19 18Z" fill="#171D26"/>
<path d="M19 7C20.1046 7 21 6.10457 21 5C21 3.89543 20.1046 3 19 3C17.8954 3 17 3.89543 17 5C17 6.10457 17.8954 7 19 7Z" fill="#171D26"/>
<path d="M7 19C7 20.1046 6.10457 21 5 21C3.89543 21 3 20.1046 3 19C3 17.8954 3.89543 17 5 17C6.10457 17 7 17.8954 7 19Z" fill="#171D26"/>
</svg>