<svg xmlns="http://www.w3.org/2000/svg" width="24" height="24" fill="none" viewBox="0 0 24 24">
  <path fill="#171D26" fill-rule="evenodd" d="M7.708 6.293a3 3 0 1 0-1.414 1.414l1.534 1.536a5 5 0 0 0 6.929 6.929l1.535 1.535a3 3 0 1 0 1.414-1.414l-1.534-1.536a5 5 0 0 0-6.929-6.929L7.708 6.293ZM4 5a1 1 0 1 1 2 0 1 1 0 0 1-2 0Zm8 10a3 3 0 1 0 0-6 3 3 0 0 0 0 6Zm7 3a1 1 0 1 0 0 2 1 1 0 0 0 0-2Z" clip-rule="evenodd"/>
  <path fill="#171D26" d="M19 7a2 2 0 1 0 0-4 2 2 0 0 0 0 4ZM7 19a2 2 0 1 1-4 0 2 2 0 0 1 4 0Z"/>
</svg>
