<svg width="24" height="24" viewBox="0 0 24 24" fill="none" xmlns="http://www.w3.org/2000/svg">
<g id="copy">
<path id="Rectangle 42" d="M20 13V7C20 5.89543 19.1046 5 18 5H6C4.89543 5 4 5.89543 4 7V17C4 18.1046 4.89543 19 6 19H10" stroke="#171D26" stroke-width="2" stroke-linecap="round"/>
<rect id="Rectangle 43" x="4" y="5" width="16" height="3" fill="#171D26"/>
<rect id="Rectangle 44" x="7" y="10" width="4" height="2" rx="1" fill="#171D26"/>
<rect id="Rectangle 45" x="9" y="2" width="4" height="2" rx="1" transform="rotate(90 9 2)" fill="#171D26"/>
<rect id="Rectangle 46" x="17" y="2" width="4" height="2" rx="1" transform="rotate(90 17 2)" fill="#171D26"/>
<circle id="Ellipse 12041" cx="16" cy="19" r="4" fill="#171D26"/>
<path id="Ellipse 12042" d="M17 19C17 19.7617 17.2897 20.4949 17.8104 21.0508C18.3311 21.6067 19.0437 21.9438 19.8038 21.9936C20.5638 22.0434 21.3144 21.8022 21.9032 21.319C22.492 20.8358 22.8749 20.1467 22.9743 19.3916C23.0738 18.6364 22.8822 17.8717 22.4385 17.2526C21.9949 16.6334 21.3323 16.2062 20.5853 16.0576C19.8382 15.909 19.0626 16.0502 18.4158 16.4524C17.769 16.8546 17.2994 17.4878 17.1022 18.2235" stroke="#171D26" stroke-width="2" stroke-linecap="round"/>
</g>
</svg>
