<svg viewBox="0 0 24 24" width="24" height="24"  fill="none" xmlns="http://www.w3.org/2000/svg">
<path d="M12 14C13.1046 14 14 13.1046 14 12C14 10.8954 13.1046 10 12 10C10.8954 10 10 10.8954 10 12C10 13.1046 10.8954 14 12 14Z" fill="#171D26"/>
<path fill-rule="evenodd" clip-rule="evenodd" d="M19.9827 9.80515C21.2737 11.0168 21.2737 12.9832 19.9827 14.1949C18.1572 15.9082 15.2608 18 11.9999 18C8.73893 18 5.84254 15.9082 4.01706 14.1949C2.72609 12.9832 2.72608 11.0168 4.01706 9.80515C5.84254 8.09177 8.73893 6 11.9999 6C15.2608 6 18.1572 8.09177 19.9827 9.80515ZM15.9999 12C15.9999 14.2091 14.209 16 11.9999 16C9.79074 16 7.99988 14.2091 7.99988 12C7.99988 9.79086 9.79074 8 11.9999 8C14.209 8 15.9999 9.79086 15.9999 12Z" fill="#171D26"/>
</svg>